<svg xmlns="http://www.w3.org/2000/svg" width="432" height="432" viewBox="0 0 432 432">
  <defs>
    <style>
      .cls-1 {
        fill: #405941;
      }

      .cls-2 {
        fill: #f3eedd;
      }

      .cls-3 {
        fill: #f3b9ca;
      }
    </style>
  </defs>
  <g id="Brand-icone-Versailles-C-01" transform="translate(-0.158 -0.158)">
    <circle id="Elipse_1" data-name="Elipse 1" class="cls-1" cx="216" cy="216" r="216" transform="translate(0.158 0.158)"/>
    <path id="Caminho_1" data-name="Caminho 1" class="cls-2" d="M319.534,188.54a137.088,137.088,0,0,0-104.66,48.514,4.074,4.074,0,0,0-.3.311h0c-.056.073-.1.156-.16.229A137.28,137.28,0,0,0,257.55,448.487a4.014,4.014,0,1,0,3.63-7.161,129.258,129.258,0,0,1-50.252-185.559,133.416,133.416,0,0,0,89.854,140.227,50.333,50.333,0,0,0,63.471,59.638,3.943,3.943,0,0,0,1.1-.212A137.6,137.6,0,0,0,456.882,325.9C456.882,250.157,395.27,188.54,319.534,188.54Zm0,8.029a129.325,129.325,0,0,1,108.359,58.817,136.2,136.2,0,0,0-118.078,89,133.619,133.619,0,0,0-85.187-106.242A129,129,0,0,1,319.534,196.569ZM353.45,307.962a117.476,117.476,0,0,0-31.591,56.055l-11.3,11.331a128.126,128.126,0,0,1,111-111.285L410.317,275.33a123.658,123.658,0,0,0-56.868,32.632Zm43.441-19.685L339.729,346.1l-5.67,5.683C345.109,323.715,368.338,300.235,396.89,288.278Zm-94.919,92.369c-.043.3-.069.6-.117.9l-7.645-13.591a121.242,121.242,0,0,0-15.7-62.326,115.017,115.017,0,0,0-44.512-44.689l-7.7-13.673a125.585,125.585,0,0,1,76.6,124.807Q302.3,376.334,301.971,380.647Zm-55.718-97.918-3.95-7.023c23.553,17.874,39.547,46.025,43.25,76.129ZM279,356.969c-23.557-17.874-39.551-46.025-43.255-76.129l39.326,69.145ZM234.209,331.2a125.1,125.1,0,0,1-14.767-80.074l7.649,13.591a121.225,121.225,0,0,0,15.7,62.309A115.046,115.046,0,0,0,287.3,371.719l7.7,13.673A125.066,125.066,0,0,1,234.209,331.2ZM384.837,437.515A45.943,45.943,0,0,0,360.1,372.177a4.026,4.026,0,1,0-2.727,7.576,38.181,38.181,0,0,1,24.413,28.492c.117.609.2,1.219.294,1.828a31.733,31.733,0,0,0-53.155-3.155,4.019,4.019,0,0,0,6.482,4.754,23.717,23.717,0,1,1,37.485,29.037,37.387,37.387,0,0,1-3.31,3.31c-.026,0-.043.052-.069.073a23.559,23.559,0,0,1-3.565,2.411,42.308,42.308,0,0,1-45.117-69.945l-.065-.069,6.819-6.837a3.8,3.8,0,0,0,.726-.57l17.152-17.364,87.555-87.784a129.276,129.276,0,0,1-48.181,173.6Z" transform="translate(-103.455 -107.061)"/>
    <path id="Caminho_2" data-name="Caminho 2" class="cls-3" d="M80.98,447.145a2.23,2.23,0,0,0-.735-.229.769.769,0,0,0-.761.406A5.532,5.532,0,0,0,79,448.891c-.048.285-.281.411-.7.38a.744.744,0,0,1-.16-.03.833.833,0,0,0-.194-.03l-.281-.056c.039-.212.082-.471.125-.778s.091-.64.13-1.007.073-.73.112-1.1.069-.7.091-1.007c.052-.687.086-1.344.108-1.971a13.829,13.829,0,0,0-.026-1.625h.285a.749.749,0,0,1,.216,0h.177c.432.03.678.19.678.475a4.533,4.533,0,0,0,.255,1.642,1.832,1.832,0,0,0,.864.83l20.311,10.272a1.788,1.788,0,0,1,0,.285c0,.069,0,.156,0,.251a.644.644,0,0,1-.134.4,1.3,1.3,0,0,1-.519.229L79.2,462.867a3.46,3.46,0,0,0-.458.2,1.093,1.093,0,0,0-.363.346,2.412,2.412,0,0,0-.281.64,10.493,10.493,0,0,0-.233,1.072c-.048.307-.307.432-.782.406h-.3a.554.554,0,0,1-.3-.091c.052-.354.1-.756.16-1.2s.1-.9.151-1.361.091-.912.134-1.348.073-.817.1-1.15c.056-.778.1-1.634.134-2.558s.048-1.75.052-2.489a.864.864,0,0,1,.359-.043h.285c.432.03.64.19.644.475a4.619,4.619,0,0,0,.233,1.6.756.756,0,0,0,.64.51,1.8,1.8,0,0,0,.579-.065l14.378-4.166Z" transform="translate(-43.434 -250.794)"/>
    <path id="Caminho_3" data-name="Caminho 3" class="cls-3" d="M85.647,403.909l8.38,1.793,1.063-4.9a.925.925,0,0,0-.341-1.02,7.4,7.4,0,0,0-1.668-.791.432.432,0,0,1-.32-.285,1.029,1.029,0,0,1,0-.471,1.771,1.771,0,0,1,.086-.328,1.477,1.477,0,0,1,.125-.32c.523.164,1.132.337,1.832.523s1.3.328,1.78.432c.432.091.912.186,1.487.281s1.223.19,1.958.277a.774.774,0,0,1,0,.346,1.21,1.21,0,0,1-.056.337c-.086.432-.3.6-.627.553a6.449,6.449,0,0,0-1.889.086.916.916,0,0,0-.64.752l-1.05,4.9,7.779,1.664c.488.1.864-.13,1.167-.7a13.319,13.319,0,0,0,.9-3.025l.311-1.461a4.948,4.948,0,0,0,.1-1.815,4.166,4.166,0,0,0-.514-1.435,5.523,5.523,0,0,0-.972-1.227c-.393-.376-.838-.761-1.335-1.158a.488.488,0,0,1-.138-.536,1.154,1.154,0,0,1,.194-.4l.311-.432c.177.086.341.177.488.268l.454.259a4.508,4.508,0,0,0,.774.458,5.922,5.922,0,0,1,.687.363l.748.324.8.354q.385.169.674.324l.393.212a.571.571,0,0,1,.156.614c-.039.186-.108.432-.2.8s-.2.713-.294,1.119-.2.808-.315,1.223-.2.769-.268,1.067l-1.685,7.891q-.212,1.011-.432,2.325c-.151.864-.281,1.668-.38,2.373a.864.864,0,0,1-.38,0l-.333-.069c-.346-.073-.506-.233-.48-.467a8.246,8.246,0,0,0-.117-2.005,1.016,1.016,0,0,0-.864-.782l-17.407-3.725a1.344,1.344,0,0,0-.6,0,.864.864,0,0,0-.471.315,3.7,3.7,0,0,0-.432.7c-.147.3-.32.678-.519,1.145-.117.216-.35.29-.7.216l-.333-.073a.951.951,0,0,1-.315-.138c.281-.981.519-1.854.7-2.615s.341-1.417.458-1.975l1.526-7.126c.22-1.042.38-1.949.471-2.714s.164-1.3.225-1.573a.609.609,0,0,1,.432-.488,4.684,4.684,0,0,1,1.063.048,13.568,13.568,0,0,0,1.6.086h1.2a13.128,13.128,0,0,0,1.443-.125c0,.125.039.264.056.432a1.3,1.3,0,0,1,0,.432.6.6,0,0,1-.432.488,15.714,15.714,0,0,0-1.729.488,4.088,4.088,0,0,0-1.236.683,3.167,3.167,0,0,0-.825,1.059,6.681,6.681,0,0,0-.519,1.577Z" transform="translate(-46.688 -223.812)"/>
    <path id="Caminho_4" data-name="Caminho 4" class="cls-3" d="M109.709,354.357l-.527,1.435,6.975,2.558a1.18,1.18,0,0,0,1.322-.251,8.242,8.242,0,0,0,1.331-2.031q.242-.432.843-.22a3.364,3.364,0,0,1,.575.285c-.281.627-.618,1.422-1,2.377s-.8,2-1.21,3.137q-.432,1.2-.8,2.338t-.648,2.126a.657.657,0,0,1-.324-.043l-.268-.1c-.38-.138-.545-.341-.5-.6.082-.5.138-.908.169-1.227a2.826,2.826,0,0,0,0-.765.864.864,0,0,0-.251-.454,1.68,1.68,0,0,0-.523-.285l-16.72-6.132a1.115,1.115,0,0,0-1.145.13,5.372,5.372,0,0,0-1.15,1.681.639.639,0,0,1-.3.194.864.864,0,0,1-.506-.073l-.3-.108a.5.5,0,0,1-.242-.164c.272-.609.575-1.3.908-2.113s.614-1.521.864-2.161l1.85-5.043a11.348,11.348,0,0,1,1.595-3.025,7.559,7.559,0,0,1,2.109-1.936,5.816,5.816,0,0,1,2.455-.8,6.1,6.1,0,0,1,2.628.376,5.575,5.575,0,0,1,2.822,2.269,6.949,6.949,0,0,1,1.089,3.786l9.568-2.437a3.457,3.457,0,0,0,1.729-.942,10.441,10.441,0,0,0,1.033-1.271.506.506,0,0,1,.246-.212.726.726,0,0,1,.454.056l.3.108a1,1,0,0,1,.307.19c-.112.238-.255.575-.432,1.016s-.363.895-.557,1.366-.389.942-.579,1.417-.337.864-.432,1.18a2.36,2.36,0,0,1-1.1,1.188,8.167,8.167,0,0,1-2.053.8Zm-1.828-.177a8.872,8.872,0,0,0,.484-1.945,3.816,3.816,0,0,0-.16-1.685,3.237,3.237,0,0,0-.946-1.387,5.935,5.935,0,0,0-1.919-1.067,5.247,5.247,0,0,0-3.639-.194q-1.573.566-2.5,3.094l-.367,1,8.678,3.185Z" transform="translate(-53.667 -194.809)"/>
    <path id="Caminho_5" data-name="Caminho 5" class="cls-3" d="M131.853,294.5a2.122,2.122,0,0,1-.216.648.914.914,0,0,1-1,.605,6.214,6.214,0,0,0-3.561.527,6.051,6.051,0,0,0-2.39,2.666,4.884,4.884,0,0,0-.6,2.956,2.891,2.891,0,0,0,1.7,2.23,2.679,2.679,0,0,0,2.295.173,8.854,8.854,0,0,0,2.3-1.37q1.167-.933,2.4-2.074a15.48,15.48,0,0,1,2.623-1.962,7.728,7.728,0,0,1,2.973-1.016,5.83,5.83,0,0,1,3.414.756,7.687,7.687,0,0,1,2.122,1.625,6.011,6.011,0,0,1,1.327,2.338,7.212,7.212,0,0,1,.22,2.96,10.151,10.151,0,0,1-1.167,3.518,16.055,16.055,0,0,1-2.39,3.488,17.347,17.347,0,0,1-2.386,2.2q-1.4-.609-2.818-1.085c-.942-.32-1.867-.6-2.774-.864a2.161,2.161,0,0,1,.251-.791,1.054,1.054,0,0,1,.432-.5,1.219,1.219,0,0,1,.653-.061,12.789,12.789,0,0,0,2.541.164,5.887,5.887,0,0,0,2.027-.432,4.753,4.753,0,0,0,1.6-1.111,8.357,8.357,0,0,0,1.3-1.871,5.358,5.358,0,0,0,.6-1.811,3.648,3.648,0,0,0-.121-1.508,3.211,3.211,0,0,0-.7-1.2,3.949,3.949,0,0,0-1.119-.864,3.25,3.25,0,0,0-2.532-.337,7.239,7.239,0,0,0-2.295,1.249,27.81,27.81,0,0,0-2.277,1.979,13.734,13.734,0,0,1-2.468,1.884,7.209,7.209,0,0,1-2.835.968,5.864,5.864,0,0,1-3.414-.8,6.694,6.694,0,0,1-2.118-1.681,6,6,0,0,1-1.2-2.325,7.477,7.477,0,0,1-.169-2.8,9.075,9.075,0,0,1,1.011-3.1,14.292,14.292,0,0,1,1.672-2.515,22.5,22.5,0,0,1,2.532-2.55c.648.285,1.4.588,2.23.9S131.157,294.292,131.853,294.5Z" transform="translate(-69.298 -166.27)"/>
    <path id="Caminho_6" data-name="Caminho 6" class="cls-3" d="M165.762,265.778l-4.239,6.145,3.025,4.322a1.011,1.011,0,0,0,.242.337,2.021,2.021,0,0,0,.242.212.743.743,0,0,0,.739.056,4.369,4.369,0,0,0,1.21-1,.579.579,0,0,1,.838-.026,3.188,3.188,0,0,1,.454.4c-.4.5-.817,1.033-1.253,1.6s-.864,1.128-1.236,1.694c-.268.393-.54.808-.817,1.249s-.57.946-.864,1.517a.709.709,0,0,1-.3-.125l-.233-.16c-.372-.255-.48-.519-.324-.787a6.482,6.482,0,0,0,.519-1.564,1.759,1.759,0,0,0-.268-1.111l-12-18.665a.908.908,0,0,1,0-1.046,3.529,3.529,0,0,1,.216-.285c.078-.091.164-.186.268-.29l22.243,4.948a1.469,1.469,0,0,0,1.124-.22,5.052,5.052,0,0,0,1.054-.864.635.635,0,0,1,.89-.035,3.151,3.151,0,0,1,.484.432c-.471.6-.929,1.188-1.374,1.776s-.864,1.137-1.214,1.664c-.19.277-.432.609-.674,1.007s-.519.8-.782,1.227-.527.838-.8,1.245-.484.756-.653,1.042a.657.657,0,0,1-.3-.125l-.238-.16a.765.765,0,0,1-.32-.376.484.484,0,0,1,0-.328,5.108,5.108,0,0,0,.432-1.361.739.739,0,0,0-.315-.761,1.793,1.793,0,0,0-.5-.212Zm-1.845-.454-8.3-2.057,4.823,7.092Z" transform="translate(-85.93 -146.645)"/>
    <path id="Caminho_7" data-name="Caminho 7" class="cls-3" d="M193.884,230.069a2.629,2.629,0,0,0,.475.346.748.748,0,0,0,.493.056,1.958,1.958,0,0,0,.674-.316,9.292,9.292,0,0,0,.955-.743c.19-.147.432-.108.687.125.056.048.13.121.233.225a2.667,2.667,0,0,1,.233.272c-.536.54-1.1,1.128-1.694,1.759s-1.106,1.193-1.543,1.694-.942,1.111-1.474,1.78-1.033,1.3-1.5,1.906a.769.769,0,0,1-.315-.182l-.238-.207c-.29-.251-.363-.471-.225-.666a9.609,9.609,0,0,0,.605-1.05,1.729,1.729,0,0,0,.2-.7.864.864,0,0,0-.121-.484,2.075,2.075,0,0,0-.4-.432L177.5,221.789a2.014,2.014,0,0,0-.493-.333.864.864,0,0,0-.493-.052,1.85,1.85,0,0,0-.661.3,9.94,9.94,0,0,0-.955.748.549.549,0,0,1-.691-.13l-.238-.207a1.12,1.12,0,0,1-.251-.311c.536-.54,1.093-1.124,1.681-1.729s1.1-1.188,1.556-1.707.92-1.089,1.465-1.768,1.042-1.3,1.5-1.919c.1.061.212.134.328.216s.2.151.255.2a.54.54,0,0,1,.22.666,8.862,8.862,0,0,0-.605,1.05,1.992,1.992,0,0,0-.216.7.752.752,0,0,0,.121.484,2.623,2.623,0,0,0,.432.432Z" transform="translate(-98.646 -121.904)"/>
    <path id="Caminho_8" data-name="Caminho 8" class="cls-3" d="M214.742,207.07c.341.359.8.38,1.383.061a13.962,13.962,0,0,0,2.468-1.992l.981-.925a5.243,5.243,0,0,0,.99-1.206,2.878,2.878,0,0,0,.393-1.271,5.017,5.017,0,0,0-.16-1.491,13.443,13.443,0,0,0-.631-1.828.5.5,0,0,1,.194-.57,1.115,1.115,0,0,1,.38-.216l.51-.186c.385.683.825,1.4,1.322,2.161s1,1.478,1.5,2.182c.177.22.242.4.2.545a.864.864,0,0,1-.225.359c-.138.13-.341.3-.609.523s-.549.462-.864.73-.609.536-.929.8-.588.506-.812.717l-5.864,5.545q-.752.7-1.681,1.664t-1.664,1.729a.864.864,0,0,1-.307-.22l-.229-.246c-.246-.259-.29-.48-.134-.657a8.16,8.16,0,0,0,1.042-1.729,1.016,1.016,0,0,0-.255-1.128L199.5,197.459a2.161,2.161,0,0,0-.454-.376.864.864,0,0,0-.488-.1,1.728,1.728,0,0,0-.687.229,9.776,9.776,0,0,0-1.024.653.553.553,0,0,1-.674-.194l-.22-.233a1.128,1.128,0,0,1-.216-.333q.864-.73,1.845-1.573c.644-.557,1.206-1.067,1.69-1.521.242-.229.514-.493.812-.8l.951-.925c.328-.324.653-.657.972-.99l.864-.921c.1.073.2.156.307.246l.233.22a.545.545,0,0,1,.156.687,5.618,5.618,0,0,0-1.106,1.8,1.154,1.154,0,0,0,.346,1.115Z" transform="translate(-111.149 -108.106)"/>
    <path id="Caminho_9" data-name="Caminho 9" class="cls-3" d="M251.648,175.5c.294.4.752.48,1.366.233a14.063,14.063,0,0,0,2.692-1.677l1.089-.8a5.532,5.532,0,0,0,1.128-1.076,2.9,2.9,0,0,0,.54-1.214,4.914,4.914,0,0,0,.026-1.5,13.236,13.236,0,0,0-.4-1.889c-.056-.194.03-.38.259-.549a1.141,1.141,0,0,1,.411-.164l.523-.125q.432,1.089,1.054,2.295t1.219,2.347c.151.242.194.432.134.566a.864.864,0,0,1-.268.328,7.306,7.306,0,0,1-.666.432c-.29.169-.605.393-.933.622s-.67.458-1.02.687-.644.432-.895.614l-6.482,4.788c-.553.406-1.18.886-1.871,1.443s-1.318,1.063-1.858,1.526a.813.813,0,0,1-.281-.259l-.2-.272c-.212-.285-.229-.51-.052-.67a8.246,8.246,0,0,0,1.245-1.577,1.016,1.016,0,0,0-.134-1.15l-10.566-14.339a2.088,2.088,0,0,0-.4-.432.89.89,0,0,0-.471-.16,1.879,1.879,0,0,0-.713.147,10.06,10.06,0,0,0-1.093.523c-.233.082-.432,0-.644-.277-.043-.06-.108-.143-.19-.259a.964.964,0,0,1-.173-.354q.955-.622,2.018-1.335t1.863-1.3q.4-.29.908-.687l1.05-.821c.363-.281.726-.57,1.085-.864l.972-.8a3.417,3.417,0,0,1,.277.281c.1.108.16.19.2.246a.545.545,0,0,1,.073.7,5.618,5.618,0,0,0-1.3,1.655,1.167,1.167,0,0,0,.207,1.15Z" transform="translate(-132.886 -89.435)"/>
    <path id="Caminho_10" data-name="Caminho 10" class="cls-3" d="M283.05,128.645l4.175,7.485,4.378-2.442a.925.925,0,0,0,.54-.929,7.347,7.347,0,0,0-.5-1.776.432.432,0,0,1,0-.432,1.076,1.076,0,0,1,.359-.3l.307-.147a1.763,1.763,0,0,1,.32-.121c.22.5.5,1.076.817,1.729s.6,1.188.864,1.625c.207.372.467.808.765,1.3s.666,1.05,1.089,1.655a.726.726,0,0,1-.255.242c-.125.086-.225.147-.285.182-.372.207-.648.173-.83-.108a6.205,6.205,0,0,0-1.3-1.366.929.929,0,0,0-.994,0l-4.378,2.442,3.889,6.958a1.055,1.055,0,0,0,1.3.432,13.64,13.64,0,0,0,2.857-1.3l1.3-.73a4.926,4.926,0,0,0,1.426-1.119,4.187,4.187,0,0,0,.748-1.331,5.618,5.618,0,0,0,.277-1.543q.039-.81,0-1.763a.509.509,0,0,1,.311-.462,1.133,1.133,0,0,1,.432-.112l.54-.056c.052.186.091.367.121.54s.065.346.1.514a4.534,4.534,0,0,0,.164.864,5.491,5.491,0,0,1,.177.756c.078.229.16.488.251.774s.177.566.264.834.143.506.2.722.082.359.1.432a.579.579,0,0,1-.359.527c-.169.091-.411.216-.735.367s-.666.324-1.033.514-.743.38-1.128.57-.713.354-.981.506l-7.048,3.928q-.9.506-2.04,1.2c-.761.467-1.439.89-2.035,1.3a.864.864,0,0,1-.246-.294c-.073-.134-.13-.233-.16-.294-.173-.311-.164-.532.03-.67a8.086,8.086,0,0,0,1.43-1.409,1,1,0,0,0,.03-1.154l-8.673-15.558a1.4,1.4,0,0,0-.38-.462.864.864,0,0,0-.544-.143,3.69,3.69,0,0,0-.821.134c-.324.082-.722.2-1.2.363-.242.056-.432-.073-.622-.385-.061-.1-.112-.2-.164-.294a.864.864,0,0,1-.1-.333q1.387-.648,2.429-1.188c.7-.363,1.3-.678,1.785-.959l6.37-3.548c.929-.519,1.729-.994,2.355-1.435s1.08-.726,1.327-.864a.605.605,0,0,1,.653,0,4.356,4.356,0,0,1,.666.83,12.745,12.745,0,0,0,.99,1.262c.259.315.523.618.786.9s.618.618,1.05,1l-.272.315a1.357,1.357,0,0,1-.341.268.6.6,0,0,1-.648,0,14.228,14.228,0,0,0-1.5-.977,4.027,4.027,0,0,0-1.322-.48,3.172,3.172,0,0,0-1.344.073,6.5,6.5,0,0,0-1.53.653Z" transform="translate(-156.605 -69.509)"/>
    <path id="Caminho_11" data-name="Caminho 11" class="cls-3" d="M343.4,109.138a2.16,2.16,0,0,1-.588.35,1.033,1.033,0,0,1-.735.086.942.942,0,0,1-.432-.272,6.232,6.232,0,0,0-3.055-1.906,6.024,6.024,0,0,0-3.548.48,4.879,4.879,0,0,0-2.368,1.863,2.9,2.9,0,0,0-.151,2.8,2.7,2.7,0,0,0,1.634,1.616,8.743,8.743,0,0,0,2.636.432q1.5.048,3.176,0a15.412,15.412,0,0,1,3.267.207,7.663,7.663,0,0,1,2.926,1.154,5.821,5.821,0,0,1,2.109,2.792,7.693,7.693,0,0,1,.562,2.593,6.017,6.017,0,0,1-.5,2.64,7.217,7.217,0,0,1-1.755,2.4A10.259,10.259,0,0,1,343.4,128.3a15.761,15.761,0,0,1-4.075,1.106,17.5,17.5,0,0,1-3.25.134c-.432-.916-.929-1.8-1.439-2.653s-1.029-1.672-1.556-2.459a2.2,2.2,0,0,1,.709-.432,1.063,1.063,0,0,1,.653-.091,1.188,1.188,0,0,1,.536.376,13.07,13.07,0,0,0,1.828,1.772,5.969,5.969,0,0,0,1.824.99,4.754,4.754,0,0,0,1.936.19,8.1,8.1,0,0,0,2.2-.583,5.185,5.185,0,0,0,1.634-.99,3.716,3.716,0,0,0,.886-1.223,3.271,3.271,0,0,0,.251-1.37,4.036,4.036,0,0,0-.294-1.379,3.241,3.241,0,0,0-1.729-1.9,7.282,7.282,0,0,0-2.554-.54c-.951-.035-1.958-.026-3.025.035a13.829,13.829,0,0,1-3.094-.164,7.256,7.256,0,0,1-2.787-1.1,5.9,5.9,0,0,1-2.087-2.822,6.888,6.888,0,0,1-.519-2.653,6.106,6.106,0,0,1,.6-2.55,7.347,7.347,0,0,1,1.685-2.234,9,9,0,0,1,2.779-1.729,14.759,14.759,0,0,1,2.9-.83,22.653,22.653,0,0,1,3.583-.3c.307.64.683,1.353,1.115,2.161S343,108.533,343.4,109.138Z" transform="translate(-187.076 -59.561)"/>
    <path id="Caminho_12" data-name="Caminho 12" class="cls-3" d="M401.724,116.219a4.175,4.175,0,0,1-.048-1.685,4.533,4.533,0,0,1,.583-1.577,4.391,4.391,0,0,1,1.15-1.253,4.321,4.321,0,0,1,1.616-.739,3.79,3.79,0,0,1,1.69-.03,4.361,4.361,0,0,1,1.517.631,4.516,4.516,0,0,1,1.871,2.705,4.853,4.853,0,0,1,.091,1.806,4.135,4.135,0,0,1-.549,1.569,4.179,4.179,0,0,1-1.089,1.2,3.993,3.993,0,0,1-1.534.7,4.551,4.551,0,0,1-1.772.065,4.175,4.175,0,0,1-2.8-1.729A4.6,4.6,0,0,1,401.724,116.219Z" transform="translate(-228.052 -62.947)"/>
    <path id="Caminho_13" data-name="Caminho 13" class="cls-3" d="M453.8,81.457a1.08,1.08,0,0,0-.605-.959,6.154,6.154,0,0,0-1.979-.337c-.242-.026-.376-.216-.411-.566a3.093,3.093,0,0,1,.022-.575c.756,0,1.547-.056,2.364-.1s1.5-.082,2.04-.134,1.24-.134,2.031-.242,1.521-.22,2.2-.328a3.07,3.07,0,0,1,.125.557c.035.38-.078.592-.333.64a5.3,5.3,0,0,0-1.729.678,1.1,1.1,0,0,0-.385,1.054l1.417,15.329a35.443,35.443,0,0,1,.181,4.265,9.888,9.888,0,0,1-.635,3.31,10.177,10.177,0,0,1-1.768,2.913,25.416,25.416,0,0,1-3.211,3.1.968.968,0,0,1-.527-.7.557.557,0,0,1,.134-.432,11.742,11.742,0,0,0,2.411-4.08,11.379,11.379,0,0,0,.4-4.5Z" transform="translate(-255.983 -44.417)"/>
    <path id="Caminho_14" data-name="Caminho 14" class="cls-3" d="M490.843,91.921l-7.926-.13-2.351,5.687a1.832,1.832,0,0,0-.19.709q0,.743,2.161,1.1a.432.432,0,0,1,.337.2.752.752,0,0,1,.082.376,2.755,2.755,0,0,1-.078.566c-.64-.056-1.3-.108-2.027-.156s-1.409-.078-2.1-.086H477.3a13.61,13.61,0,0,0-1.569.121,2.353,2.353,0,0,1-.061-.57.977.977,0,0,1,.1-.432.432.432,0,0,1,.376-.207,6.345,6.345,0,0,0,1.664-.432,1.642,1.642,0,0,0,.812-.825L487.48,77.4c.169-.4.4-.6.683-.6a2.3,2.3,0,0,1,.432.078l8.259,21.4a1.586,1.586,0,0,0,.946.8,6.914,6.914,0,0,0,1.452.432.942.942,0,0,1,.337.2.652.652,0,0,1,.117.432,3.165,3.165,0,0,1-.082.566c-.756-.061-1.5-.112-2.234-.16s-1.426-.078-2.061-.086-1.422,0-2.277,0-1.625.048-2.312.086a2.966,2.966,0,0,1-.065-.57.614.614,0,0,1,.134-.432.324.324,0,0,1,.233-.121,8.281,8.281,0,0,0,1.5-.385c.38-.147.575-.376.579-.683a1.373,1.373,0,0,0-.134-.54Zm-.545-1.469-3.168-8.76-3.587,8.643Z" transform="translate(-270.105 -43.61)"/>
    <path id="Caminho_15" data-name="Caminho 15" class="cls-3" d="M543.925,92.864l-2.593-.4-1.184,7.731a1.054,1.054,0,0,0,.562,1.167,9.8,9.8,0,0,0,2.126.791c.277.091.385.311.328.661a2.9,2.9,0,0,1-.16.588c-.622-.143-1.387-.3-2.282-.475s-1.78-.324-2.645-.458c-.614-.091-1.318-.182-2.118-.268s-1.56-.16-2.269-.22a2.9,2.9,0,0,1,0-.575c.047-.328.207-.493.471-.5a6.253,6.253,0,0,0,1.958-.225,1.067,1.067,0,0,0,.7-.916l2.731-17.891A1.128,1.128,0,0,0,539.2,80.8a5.216,5.216,0,0,0-1.91-.812c-.229-.061-.315-.277-.259-.653a3.112,3.112,0,0,1,.156-.553q1.042.233,2.161.458c.743.147,1.456.277,2.135.38l4.754.726q3.794.579,5.471,2.541a5.73,5.73,0,0,1,1.245,4.814,5.411,5.411,0,0,1-.51,1.577,6.56,6.56,0,0,1-2.7,2.8,7.1,7.1,0,0,1-2.191.8l4.624,9.049a3.755,3.755,0,0,0,1.3,1.491,9.86,9.86,0,0,0,1.43.756c.207.082.285.259.242.54a3.029,3.029,0,0,1-.164.622c-.536-.13-1.184-.268-1.949-.432s-1.482-.281-2.139-.38a2.36,2.36,0,0,1-1.4-.864,7.726,7.726,0,0,1-1.175-1.832Zm-.519-1.551a6.156,6.156,0,0,0,3.954-.458q1.5-.83,1.888-3.431a6.811,6.811,0,0,0,.026-2.048,4.135,4.135,0,0,0-.653-1.729,4.377,4.377,0,0,0-1.456-1.3,6.888,6.888,0,0,0-2.385-.761l-1.755-.268-1.482,9.7Z" transform="translate(-303.044 -44.735)"/>
    <path id="Caminho_16" data-name="Caminho 16" class="cls-3" d="M610.373,106.749a12.363,12.363,0,0,1-1.94,3.751,10.8,10.8,0,0,1-7.571,4.313,12.818,12.818,0,0,1-5.342-.605l-6.953-2.182c-.592-.182-1.262-.376-2.018-.575s-1.5-.389-2.208-.562a2.979,2.979,0,0,1,.1-.562q.147-.48.544-.432a9.538,9.538,0,0,0,1.979,0,.964.964,0,0,0,.817-.713L593.191,91.9a1.029,1.029,0,0,0-.207-1.106,7.375,7.375,0,0,0-1.672-1.085.38.38,0,0,1-.225-.294.835.835,0,0,1,.03-.4,2.973,2.973,0,0,1,.238-.523c.462.194.864.35,1.21.471s.679.242.985.367.622.229.925.324l.968.3,6.953,2.161a13.8,13.8,0,0,1,4.728,2.45,10.752,10.752,0,0,1,2.835,3.5A10.242,10.242,0,0,1,611,102.228a13.277,13.277,0,0,1-.627,4.52Zm-3.764-.471q1.638-5.225-.169-8.565t-6.789-4.9l-2.952-.925-5.657,18.051a1,1,0,0,0,0,.627,1.15,1.15,0,0,0,.462.553,5.332,5.332,0,0,0,1.054.557c.462.194,1.05.4,1.776.631a14.141,14.141,0,0,0,4.607.752,7.64,7.64,0,0,0,3.457-.864,7.346,7.346,0,0,0,2.519-2.325,13.26,13.26,0,0,0,1.69-3.587Z" transform="translate(-331.813 -50.248)"/>
    <path id="Caminho_17" data-name="Caminho 17" class="cls-3" d="M648.249,131.638a1,1,0,0,0,.056,1.1,7.655,7.655,0,0,0,1.461,1.258c.194.143.225.363.091.666a3.548,3.548,0,0,1-.3.493q-.977-.519-1.962-1.02c-.653-.333-1.3-.635-1.889-.908s-1.236-.536-1.953-.817-1.4-.545-2.044-.787a2.742,2.742,0,0,1,.169-.545q.2-.432.557-.376a6.409,6.409,0,0,0,1.9.272,1.05,1.05,0,0,0,.864-.7l7.437-16.5a1.089,1.089,0,0,0-.039-1.128,5.722,5.722,0,0,0-1.474-1.232.337.337,0,0,1-.173-.311,1.068,1.068,0,0,1,.1-.385,3.3,3.3,0,0,1,.3-.488q.946.5,1.975,1.024c.687.346,1.3.648,1.88.9s1.167.506,1.884.791,1.422.553,2.109.812a2.805,2.805,0,0,1-.169.549c-.143.324-.337.458-.57.4a5.679,5.679,0,0,0-1.9-.285,1.089,1.089,0,0,0-.864.722Z" transform="translate(-364.39 -62.588)"/>
    <path id="Caminho_18" data-name="Caminho 18" class="cls-3" d="M684.493,147.805l7.6-12.775a1.145,1.145,0,0,0,.073-1.236,5.617,5.617,0,0,0-1.4-1.409c-.212-.156-.22-.393-.026-.722a3.18,3.18,0,0,1,.354-.432q.726.519,1.491,1.037c.514.341,1,.657,1.474.933s.925.532,1.43.791,1.007.51,1.5.748a2.911,2.911,0,0,1-.229.527c-.195.324-.4.432-.614.337a4.084,4.084,0,0,0-1.677-.432,1.176,1.176,0,0,0-.908.661l-10.7,17.973a.865.865,0,0,1-.242-.078,2.41,2.41,0,0,1-.251-.134.912.912,0,0,1-.337-.341,1.919,1.919,0,0,1-.164-.7L679.2,128.842l-8.561,14.4a1.042,1.042,0,0,0-.082,1.106,6.561,6.561,0,0,0,1.379,1.443c.177.16.182.385,0,.67a2.95,2.95,0,0,1-.354.432c-.48-.341-.977-.683-1.478-1.024s-.977-.64-1.422-.908-.9-.51-1.465-.808-1.089-.557-1.56-.782a3.089,3.089,0,0,1,.229-.527c.169-.285.376-.38.627-.29a5.492,5.492,0,0,0,1.755.432,1.085,1.085,0,0,0,.89-.627l9.343-15.709a1.016,1.016,0,0,0,.1-.955,4.167,4.167,0,0,0-1.21-1.3.521.521,0,0,1-.026-.722,1.357,1.357,0,0,1,.194-.255,1.392,1.392,0,0,1,.16-.2c.38.285.752.545,1.106.782s.653.432,1.011.666.683.432.968.6a8.039,8.039,0,0,1,1.141.761.938.938,0,0,1,.294.588Z" transform="translate(-377.99 -69.97)"/>
    <path id="Caminho_19" data-name="Caminho 19" class="cls-3" d="M725.728,183.227l-6.184-4.961-5.354,3.025a1.888,1.888,0,0,0-.583.432q-.467.583,1.024,2.191a.432.432,0,0,1,.143.363.8.8,0,0,1-.164.346,3.06,3.06,0,0,1-.432.4q-.7-.653-1.5-1.361c-.536-.475-1.067-.925-1.6-1.357-.372-.294-.761-.588-1.162-.864s-.838-.583-1.3-.864a2.256,2.256,0,0,1,.3-.488.946.946,0,0,1,.337-.277.432.432,0,0,1,.432.065,6.266,6.266,0,0,0,1.569.691,1.608,1.608,0,0,0,1.145-.156l19.585-10.726c.38-.212.683-.229.9-.048a1.91,1.91,0,0,1,.29.32l-6.586,21.98a1.565,1.565,0,0,0,.259,1.21,7.148,7.148,0,0,0,.89,1.219.838.838,0,0,1,.143.363.635.635,0,0,1-.177.432,3.141,3.141,0,0,1-.432.4c-.562-.51-1.119-1.011-1.668-1.5s-1.076-.933-1.577-1.331-1.119-.864-1.806-1.383-1.3-.955-1.884-1.348a3,3,0,0,1,.3-.488.605.605,0,0,1,.376-.268.337.337,0,0,1,.259.048,7.958,7.958,0,0,0,1.417.614.752.752,0,0,0,.864-.186,1.388,1.388,0,0,0,.225-.506Zm.471-1.491,2.891-8.868-8.163,4.633Z" transform="translate(-402.379 -96.256)"/>
    <path id="Caminho_20" data-name="Caminho 20" class="cls-3" d="M769.877,227.649q-1.3-.972-2.567-2.079a38.974,38.974,0,0,1-2.8-2.736,14.007,14.007,0,0,1-2.969-4.507,10.505,10.505,0,0,1-.735-4.46,10.246,10.246,0,0,1,1.236-4.214A14.961,14.961,0,0,1,765,205.872a13.034,13.034,0,0,1,3.609-2.394,11.236,11.236,0,0,1,8.885-.233,11.845,11.845,0,0,1,4.373,3.064q.726.774,1.361,1.525a17.41,17.41,0,0,1,1.184,1.543c.367.532.73,1.08,1.08,1.642s.722,1.188,1.1,1.871c-.57.6-1.137,1.258-1.694,1.958a26.519,26.519,0,0,0-1.551,2.161.588.588,0,0,1-.272-.134,2.273,2.273,0,0,1-.268-.238.657.657,0,0,1-.151-.834,5.679,5.679,0,0,0,1-3.915A7.8,7.8,0,0,0,781.411,208a9.788,9.788,0,0,0-3.271-2.386,7.8,7.8,0,0,0-3.423-.661,8.73,8.73,0,0,0-3.414.89,12.909,12.909,0,0,0-3.224,2.256,13.518,13.518,0,0,0-2.787,3.626,11.171,11.171,0,0,0-1.223,3.889,8.746,8.746,0,0,0,.363,3.76,8.6,8.6,0,0,0,1.975,3.289,14.925,14.925,0,0,0,1.53,1.417,11.47,11.47,0,0,0,1.465,1.041l3.959-3.73a1.469,1.469,0,0,0,.579-1.327,4.754,4.754,0,0,0-.912-1.776.471.471,0,0,1-.086-.458.951.951,0,0,1,.238-.367,2.393,2.393,0,0,1,.462-.337q.653.8,1.469,1.729t1.448,1.616c.432.432.916.951,1.487,1.5s1.076,1.029,1.517,1.43a2.881,2.881,0,0,1-.367.432.691.691,0,0,1-.432.238.588.588,0,0,1-.324-.112,3.414,3.414,0,0,0-1.435-.821,1.236,1.236,0,0,0-1.067.393l-4.611,4.322a.773.773,0,0,1-.51.233A1.841,1.841,0,0,1,769.877,227.649Z" transform="translate(-432.012 -114.955)"/>
    <path id="Caminho_21" data-name="Caminho 21" class="cls-3" d="M810.678,245.567l-7.437,5.246,3.194,4.533a1.046,1.046,0,0,0,1.149.432,7.733,7.733,0,0,0,1.66-.579.575.575,0,0,1,.748.255,1.857,1.857,0,0,1,.134.255,2.356,2.356,0,0,1,.1.272c-.432.259-.959.57-1.525.921s-1.046.674-1.452.959c-.333.233-.726.527-1.188.864s-.968.774-1.53,1.253a2.33,2.33,0,0,1-.363-.393.605.605,0,0,1,0-.821,7.632,7.632,0,0,0,1.106-1.366,1.041,1.041,0,0,0,0-1.227l-3.2-4.533-6.858,4.836c-.406.285-.493.739-.259,1.357a14.116,14.116,0,0,0,1.621,2.731l1.124,1.595a4.948,4.948,0,0,0,1.3,1.3,4.573,4.573,0,0,0,1.448.631,5.912,5.912,0,0,0,1.608.151,16.2,16.2,0,0,0,1.789-.173c.177-.039.346.056.51.29a.791.791,0,0,1,.13.367q.026.22.039.432a8.572,8.572,0,0,0-1.638.484l-1.729.67a12.385,12.385,0,0,1-1.448.475c-.432.108-.7.065-.834-.13s-.255-.385-.432-.687-.393-.631-.622-.977-.458-.7-.683-1.063-.432-.67-.605-.921l-4.486-6.366q-.6-.843-1.3-1.768c-.48-.622-.946-1.206-1.392-1.759a2.868,2.868,0,0,1,.432-.389c.268-.19.493-.2.67-.035a8.281,8.281,0,0,0,1.551,1.275,1.011,1.011,0,0,0,1.15-.1l14.793-10.424a1.011,1.011,0,0,0,.5-.985,8.451,8.451,0,0,0-.7-1.962q-.151-.333.285-.635a1.7,1.7,0,0,1,.259-.16,1.966,1.966,0,0,1,.251-.112q.791,1.3,1.357,2.161c.376.575.722,1.085,1.037,1.534l4.032,5.722q.925,1.3,1.69,2.2t.985,1.219a.653.653,0,0,1-.121.864,11.2,11.2,0,0,1-.994,1.029c-.406.372-.83.774-1.3,1.206a4.252,4.252,0,0,0-.968,1.335,1.072,1.072,0,0,1-.544-.4.588.588,0,0,1-.086-.678c.341-.588.614-1.115.825-1.582a4.257,4.257,0,0,0,.363-1.366,3.482,3.482,0,0,0-.194-1.383,6.563,6.563,0,0,0-.864-1.59Z" transform="translate(-448.232 -136.049)"/>
    <path id="Caminho_22" data-name="Caminho 22" class="cls-3" d="M846.873,306.672a2.89,2.89,0,0,1,.328,0,.545.545,0,0,1,.32.181,3.057,3.057,0,0,1,.363.454,7.281,7.281,0,0,1,.484.864c.082.173.195.393.341.666l.467.864c.164.315.341.635.523.955s.35.614.506.864a3.283,3.283,0,0,1-.484.315c-.337.164-.57.147-.7-.056a4.348,4.348,0,0,0-1.175-1.327.942.942,0,0,0-.908-.035l-.825.462-2.649,1.461q-1.854,1.024-4.953,2.7t-7.714,4.209a1.253,1.253,0,0,0-.7.864,4.364,4.364,0,0,0,.281,1.8.389.389,0,0,1-.061.328.731.731,0,0,1-.3.242,3.023,3.023,0,0,1-.54.186c-.32-.769-.614-1.465-.864-2.087s-.519-1.188-.769-1.7q-.156-.315-.4-.791l-.523-.99c-.181-.35-.367-.687-.553-1.02s-.35-.618-.5-.864a2.712,2.712,0,0,1,.48-.311c.341-.164.562-.143.666.074a7.564,7.564,0,0,0,1.357,1.491,1.007,1.007,0,0,0,1.089.048c.065-.03.432-.238,1.162-.622l2.593-1.417q1.53-.843,3.315-1.806t3.362-1.832l2.71-1.491c.756-.432,1.223-.674,1.4-.756L823.7,309.8a2.226,2.226,0,0,1-.549-.03.389.389,0,0,1-.29-.233.731.731,0,0,1-.108-.3l14.166-16.565c-.225.082-.756.307-1.59.674s-1.832.8-2.986,1.3L828.67,296.2l-3.574,1.517-2.757,1.145-1.171.51q-.994.488-.32,2.844c.082.225-.039.432-.359.57a3.091,3.091,0,0,1-.54.182c-.238-.6-.475-1.18-.709-1.729s-.462-1.08-.67-1.513c-.164-.341-.4-.791-.717-1.353s-.609-1.085-.9-1.577a2.887,2.887,0,0,1,.484-.311c.3-.147.519-.121.665.069a4.755,4.755,0,0,0,1.141,1.167,1.262,1.262,0,0,0,1.2.151c.19-.1.739-.333,1.646-.722s1.979-.864,3.22-1.387l3.954-1.7,3.889-1.664,2.939-1.271,1.193-.519a.886.886,0,0,0,.553-.765,5.355,5.355,0,0,0-.3-1.729q-.121-.337.389-.583a3.029,3.029,0,0,1,.54-.186l.393.977q.225.545.467,1.076c.16.359.311.7.458,1.024s.264.583.354.778a7.312,7.312,0,0,1,.389.916,3.611,3.611,0,0,1,.138.566.579.579,0,0,1-.06.367c-.06.091-.121.182-.186.268l-12.636,14.62Z" transform="translate(-463.899 -163.17)"/>
    <path id="Caminho_23" data-name="Caminho 23" class="cls-3" d="M853.042,399.719a7.722,7.722,0,0,1-.553,3.025q-.6,1.465-1.236,2.783T850.13,408a3.418,3.418,0,0,0-.255,2.118,2.544,2.544,0,0,0,.363.864,2.238,2.238,0,0,1,.333.726.156.156,0,0,1-.134.216,1.435,1.435,0,0,1-.864-.346,4.424,4.424,0,0,1-.769-.808,5.244,5.244,0,0,1-.575-.981,4.8,4.8,0,0,1-.307-.864,6.271,6.271,0,0,1-.1-2.4,11.24,11.24,0,0,1,.622-2.351,22.134,22.134,0,0,1,1.033-2.3l1.141-2.161c.363-.7.674-1.361.938-2.01a5.287,5.287,0,0,0,.432-1.776,11.561,11.561,0,0,1,.233-4.322,10.373,10.373,0,0,1,1.729-3.647,10.974,10.974,0,0,1,3.077-2.8,14.059,14.059,0,0,1,4.287-1.729,12.018,12.018,0,0,1,4.7-.177,12.363,12.363,0,0,1,4.252,1.491,11.668,11.668,0,0,1,3.332,2.878,9.893,9.893,0,0,1,1.9,3.941,13.8,13.8,0,0,1,.268,5.484,10.54,10.54,0,0,1-4.909,7.381,13.908,13.908,0,0,1-4.265,1.755,13.066,13.066,0,0,1-4.322.311,11.085,11.085,0,0,1-3.807-1.067,10.761,10.761,0,0,1-3.09-2.312,11.421,11.421,0,0,1-2.161-3.418Zm1.02-2.061a7.23,7.23,0,0,0,1.3,2.835,7.023,7.023,0,0,0,2.269,1.919,8.167,8.167,0,0,0,2.982.895,10.277,10.277,0,0,0,3.457-.233,20.01,20.01,0,0,0,4.533-1.595,11.758,11.758,0,0,0,3.328-2.433,7.947,7.947,0,0,0,1.858-3.241,7.779,7.779,0,0,0,.026-3.967,7.188,7.188,0,0,0-1.167-2.593,6.85,6.85,0,0,0-2.087-1.927,7.778,7.778,0,0,0-2.878-.99,9.506,9.506,0,0,0-3.565.2,20.053,20.053,0,0,0-4.633,1.66,12.788,12.788,0,0,0-3.436,2.5,7.956,7.956,0,0,0-1.906,3.2,7.221,7.221,0,0,0-.069,3.773Z" transform="translate(-481.387 -217.539)"/>
    <path id="Caminho_24" data-name="Caminho 24" class="cls-3" d="M876.486,464.463a13.876,13.876,0,0,1-3.7-.2,6.776,6.776,0,0,1-5.03-4.062,12.9,12.9,0,0,1-.972-4.386,13.4,13.4,0,0,1,.432-4.987,7.018,7.018,0,0,1,1.8-3.025,6.535,6.535,0,0,1,2.757-1.551,15.83,15.83,0,0,1,3.258-.57l12.057-.864a1.128,1.128,0,0,0,.99-.57,5,5,0,0,0,.363-1.914c0-.238.2-.372.579-.4a2.6,2.6,0,0,1,.575.03c0,.713,0,1.443.03,2.187s.048,1.465.1,2.161c.043.614.112,1.331.2,2.161s.19,1.59.289,2.3a3.258,3.258,0,0,1-.562.112c-.376.026-.588-.078-.627-.311a5.938,5.938,0,0,0-.635-1.9,1.089,1.089,0,0,0-1.067-.51l-11.279.8a9.342,9.342,0,0,0-5.549,1.876q-1.863,1.612-1.616,5.121a11.156,11.156,0,0,0,.683,3.341,5.316,5.316,0,0,0,1.526,2.161,5.41,5.41,0,0,0,2.485,1.111,14.067,14.067,0,0,0,3.557.138l11.171-.8a1.11,1.11,0,0,0,.99-.605,5.429,5.429,0,0,0,.363-1.949c0-.264.195-.406.575-.432a3.173,3.173,0,0,1,.57.03v2.014c0,.653.035,1.214.069,1.69.039.566.1,1.137.173,1.729s.16,1.145.246,1.729a3.263,3.263,0,0,1-.562.112.834.834,0,0,1-.376-.082.432.432,0,0,1-.255-.268,4.421,4.421,0,0,0-.609-1.793,1.158,1.158,0,0,0-1.08-.432Z" transform="translate(-492.155 -250.946)"/>
    <path id="Caminho_25" data-name="Caminho 25" class="cls-3" d="M888.586,514.363l-9.075-.67-.432,5.532a1.046,1.046,0,0,0,.618,1.063,7.938,7.938,0,0,0,1.651.6.579.579,0,0,1,.432.67,1.3,1.3,0,0,1-.056.281,1.97,1.97,0,0,1-.091.281c-.514-.086-1.106-.173-1.763-.255s-1.236-.147-1.729-.181c-.406-.03-.895-.056-1.474-.073s-1.24-.022-1.979,0a2.105,2.105,0,0,1-.03-.536c.026-.38.194-.592.51-.64a7.654,7.654,0,0,0,1.729-.354,1.042,1.042,0,0,0,.769-.959l.432-5.532-8.371-.618c-.493-.039-.864.255-1.063.864a14.161,14.161,0,0,0-.48,3.142l-.147,1.945a4.921,4.921,0,0,0,.173,1.815,4.608,4.608,0,0,0,.713,1.409,6.073,6.073,0,0,0,1.145,1.137,16.627,16.627,0,0,0,1.5,1c.16.082.233.268.207.553a.8.8,0,0,1-.13.363l-.242.359a8.47,8.47,0,0,0-1.612-.635l-1.759-.575a13.336,13.336,0,0,1-1.422-.553c-.389-.182-.575-.393-.557-.631s.048-.458.1-.808.1-.739.138-1.15.1-.83.147-1.253.1-.791.117-1.1l.575-7.779c.052-.687.086-1.417.108-2.2s.035-1.53.039-2.243a3.233,3.233,0,0,1,.575-.03c.333.026.51.16.54.4a8.256,8.256,0,0,0,.389,1.971,1.015,1.015,0,0,0,.951.661l18.047,1.335a1.007,1.007,0,0,0,1.011-.432,8.272,8.272,0,0,0,.7-1.962c.065-.233.272-.337.631-.311a1.368,1.368,0,0,1,.3.043,2.335,2.335,0,0,1,.259.069c-.143,1.011-.255,1.863-.328,2.545s-.134,1.3-.173,1.841l-.514,6.979q-.117,1.595-.1,2.774v1.569c0,.272-.233.5-.631.575a10.538,10.538,0,0,1-1.422.164c-.549.03-1.132.069-1.755.117a4.24,4.24,0,0,0-1.6.432,1.063,1.063,0,0,1-.164-.657.579.579,0,0,1,.363-.575c.635-.242,1.18-.475,1.638-.7a4.212,4.212,0,0,0,1.15-.825,3.458,3.458,0,0,0,.73-1.193,6.665,6.665,0,0,0,.346-1.776Z" transform="translate(-491.779 -287.666)"/>
    <path id="Caminho_26" data-name="Caminho 26" class="cls-3" d="M859.71,584.272l2.023-7.667-4.953-3.669a1.933,1.933,0,0,0-.64-.354c-.48-.125-1.011.48-1.586,1.824a.432.432,0,0,1-.277.277.713.713,0,0,1-.38,0,3.2,3.2,0,0,1-.536-.212c.212-.609.432-1.249.64-1.927s.432-1.353.588-2.014c.121-.462.233-.933.337-1.422s.194-1,.264-1.547a2.111,2.111,0,0,1,.57.078.916.916,0,0,1,.389.194.432.432,0,0,1,.108.432,6.459,6.459,0,0,0,0,1.729,1.591,1.591,0,0,0,.605.985l17.749,13.552c.346.264.484.531.411.808a1.808,1.808,0,0,1-.177.393l-22.753,2.887a1.59,1.59,0,0,0-1,.73,6.975,6.975,0,0,0-.752,1.3.835.835,0,0,1-.272.277.653.653,0,0,1-.463,0,3.528,3.528,0,0,1-.531-.216c.238-.722.471-1.435.691-2.135s.432-1.361.579-1.979.346-1.379.532-2.213.337-1.59.467-2.269a3.5,3.5,0,0,1,.57.078.652.652,0,0,1,.4.233.367.367,0,0,1,.061.255,8.209,8.209,0,0,0,0,1.551.756.756,0,0,0,.527.726,1.369,1.369,0,0,0,.549,0Zm1.556-.177,9.266-.972-7.541-5.558Z" transform="translate(-482.138 -322.285)"/>
    <path id="Caminho_27" data-name="Caminho 27" class="cls-3" d="M839.482,630.147a.864.864,0,0,0-.99.169,3.5,3.5,0,0,0-.791,1.249l-1.482,3.578a5.3,5.3,0,0,0-.432,1.729,3.636,3.636,0,0,0,.2,1.487,5.131,5.131,0,0,0,.774,1.34,9.966,9.966,0,0,0,1.249,1.3.432.432,0,0,1,.1.5.89.89,0,0,1-.229.311c-.1.1-.216.2-.333.3-.6-.432-1.227-.864-1.9-1.3s-1.452-.916-2.325-1.409c-.233-.121-.359-.251-.38-.389a.826.826,0,0,1,.069-.432c.151-.372.372-.825.657-1.361s.519-1.011.691-1.426l3.4-8.211c.212-.506.458-1.145.743-1.927s.549-1.53.8-2.247a3.294,3.294,0,0,1,.553.151q.458.194.389.544a6.758,6.758,0,0,0-.251,2.053,1,1,0,0,0,.666.864l16.75,6.945a1.085,1.085,0,0,0,1.124-.073,5.921,5.921,0,0,0,1.227-1.586.367.367,0,0,1,.281-.169.713.713,0,0,1,.38.06,2.941,2.941,0,0,1,.527.294q-.527,1.089-1.024,2.161t-.812,1.819c-.311.748-.618,1.539-.933,2.386s-.583,1.608-.808,2.282a2.922,2.922,0,0,1-.553-.151c-.372-.156-.519-.359-.432-.605a7.777,7.777,0,0,0,.393-2.286,1.232,1.232,0,0,0-.864-1.141Z" transform="translate(-472.978 -353.999)"/>
    <path id="Caminho_28" data-name="Caminho 28" class="cls-3" d="M824.131,670.854a1,1,0,0,0-1.093,0,7.6,7.6,0,0,0-1.357,1.37c-.151.186-.376.2-.67.048a3.692,3.692,0,0,1-.471-.333c.389-.627.773-1.253,1.149-1.889s.722-1.236,1.033-1.824.618-1.2.951-1.893.64-1.357.921-1.984a2.648,2.648,0,0,1,.536.2c.29.156.4.35.333.583a6.321,6.321,0,0,0-.4,1.88,1.046,1.046,0,0,0,.644.907l15.964,8.518a1.093,1.093,0,0,0,1.128.039,5.644,5.644,0,0,0,1.327-1.391.35.35,0,0,1,.324-.151,1.072,1.072,0,0,1,.376.125,3.194,3.194,0,0,1,.471.328q-.57.907-1.158,1.9c-.393.666-.735,1.266-1.024,1.811s-.588,1.132-.916,1.828-.653,1.383-.955,2.053a2.9,2.9,0,0,1-.531-.207c-.315-.169-.432-.367-.372-.6a5.584,5.584,0,0,0,.432-1.876,1.093,1.093,0,0,0-.661-.916Z" transform="translate(-465.937 -377.246)"/>
    <path id="Caminho_29" data-name="Caminho 29" class="cls-3" d="M802.263,718.637a3.129,3.129,0,0,1,.134.3.531.531,0,0,1,0,.367,3.027,3.027,0,0,1-.233.536,6.752,6.752,0,0,1-.536.838c-.112.156-.251.363-.432.618s-.359.532-.553.83-.4.6-.592.912-.372.6-.532.864a2.842,2.842,0,0,1-.506-.277c-.307-.22-.4-.432-.281-.64a4.355,4.355,0,0,0,.605-1.664.942.942,0,0,0-.4-.817l-.8-.506c-.51-.324-1.361-.864-2.545-1.634s-2.766-1.789-4.754-3.073-4.408-2.883-7.321-4.8a1.258,1.258,0,0,0-1.08-.207,4.436,4.436,0,0,0-1.448,1.106.358.358,0,0,1-.311.1.766.766,0,0,1-.359-.143,3.834,3.834,0,0,1-.432-.389l1.417-1.763c.432-.527.8-1.024,1.137-1.482.134-.194.307-.432.5-.735l.627-.929c.216-.324.432-.648.627-.968s.38-.605.527-.864a3.117,3.117,0,0,1,.5.272c.307.225.393.432.255.622a7.8,7.8,0,0,0-.67,1.906,1.007,1.007,0,0,0,.48.977c.056.043.432.285,1.1.726l2.481,1.608q1.465.946,3.163,2.057l3.207,2.083,2.593,1.677c.73.467,1.171.752,1.327.864l-10.726-17.286a2.208,2.208,0,0,1-.233-.5.406.406,0,0,1,.065-.367.935.935,0,0,1,.216-.238l21.31,4.59c-.182-.16-.631-.519-1.348-1.08s-1.577-1.232-2.563-2.014l-3.038-2.48-3.025-2.42q-1.387-1.115-2.342-1.858c-.631-.5-.968-.765-1.007-.791-.6-.432-1.482-.073-2.654,1.067-.156.182-.38.164-.67-.043a3.114,3.114,0,0,1-.432-.389q.618-.739,1.2-1.456t1-1.3c.22-.307.5-.735.864-1.275s.666-1.055.959-1.543a2.936,2.936,0,0,1,.5.272c.272.195.354.4.255.622a4.974,4.974,0,0,0-.484,1.556,1.253,1.253,0,0,0,.432,1.124c.173.125.644.5,1.413,1.111l2.753,2.161,3.375,2.666,3.31,2.619,2.515,1.984,1.02.8a.908.908,0,0,0,.942.125,5.4,5.4,0,0,0,1.374-1.089q.233-.272.7.065a2.882,2.882,0,0,1,.432.389l-.67.808c-.246.307-.488.614-.726.925l-.683.864c-.216.281-.389.51-.51.683a7.334,7.334,0,0,1-.627.778,3.441,3.441,0,0,1-.432.389.541.541,0,0,1-.35.121,1.011,1.011,0,0,1-.324-.035l-18.846-4.179Z" transform="translate(-442.855 -390.465)"/>
    <path id="Caminho_30" data-name="Caminho 30" class="cls-3" d="M771.1,765.1l-6.443-6.43-3.915,3.928a1.037,1.037,0,0,0-.229,1.206,7.381,7.381,0,0,0,.864,1.53.583.583,0,0,1-.125.782,1.876,1.876,0,0,1-.229.177,2.756,2.756,0,0,1-.251.151c-.333-.4-.726-.864-1.171-1.344s-.864-.916-1.2-1.271c-.281-.285-.64-.622-1.067-1.016s-.925-.825-1.5-1.3a2.136,2.136,0,0,1,.324-.432.6.6,0,0,1,.8-.151,7.778,7.778,0,0,0,1.534.864,1.046,1.046,0,0,0,1.21-.229l3.915-3.924-5.938-5.925a1.039,1.039,0,0,0-1.383-.026,14.036,14.036,0,0,0-2.411,2.066l-1.383,1.383a4.823,4.823,0,0,0-1.054,1.487,4.506,4.506,0,0,0-.372,1.53,5.893,5.893,0,0,0,.125,1.612,15.539,15.539,0,0,0,.48,1.729c.069.169,0,.35-.2.553a.752.752,0,0,1-.337.19l-.432.112a8.318,8.318,0,0,0-.756-1.53c-.337-.553-.653-1.085-.955-1.586a13,13,0,0,1-.722-1.344q-.259-.588,0-.843c.134-.134.337-.315.605-.553s.553-.493.864-.778.609-.57.925-.864.588-.54.8-.756l5.5-5.51q.726-.735,1.521-1.6T760,745.32a2.972,2.972,0,0,1,.454.354c.233.233.285.432.151.653a7.931,7.931,0,0,0-.99,1.75,1.007,1.007,0,0,0,.29,1.115l12.818,12.792a1.011,1.011,0,0,0,1.059.324,8.47,8.47,0,0,0,1.806-1.033c.2-.134.432-.073.678.177a1.8,1.8,0,0,1,.2.225c.047.065.1.143.151.225-.769.674-1.409,1.245-1.91,1.729s-.946.895-1.331,1.3l-4.978,4.931q-1.128,1.137-1.88,2.04c-.506.6-.864.994-1.029,1.18a.648.648,0,0,1-.864.026,9.931,9.931,0,0,1-1.184-.8c-.432-.333-.907-.687-1.409-1.05a4.144,4.144,0,0,0-1.482-.73,1.046,1.046,0,0,1,.3-.605.588.588,0,0,1,.653-.2,13.25,13.25,0,0,0,1.7.536,4.11,4.11,0,0,0,1.409.125,3.457,3.457,0,0,0,1.331-.432,6.585,6.585,0,0,0,1.422-1.124Z" transform="translate(-424.837 -423.224)"/>
    <path id="Caminho_31" data-name="Caminho 31" class="cls-3" d="M709.475,794.671l8.928,11.88a1.171,1.171,0,0,0,1.119.54,5.837,5.837,0,0,0,1.832-.756c.225-.138.432-.056.678.246a2.973,2.973,0,0,1,.281.5c-.5.32-1.007.648-1.521.99s-.99.678-1.426,1.007-.864.653-1.3,1.024-.864.739-1.258,1.1a3.133,3.133,0,0,1-.4-.432c-.229-.3-.251-.536-.078-.7a4.041,4.041,0,0,0,1.02-1.392,1.175,1.175,0,0,0-.264-1.093l-12.58-16.712a.809.809,0,0,1,.169-.194,2.72,2.72,0,0,1,.216-.186.89.89,0,0,1,.432-.177,1.891,1.891,0,0,1,.7.112L729,796.961l-10.065-13.4a1.033,1.033,0,0,0-.994-.5,6.7,6.7,0,0,0-1.854.726c-.22.1-.432,0-.627-.242a2.939,2.939,0,0,1-.285-.5c.5-.315,1-.644,1.508-.981s.964-.657,1.383-.972.812-.631,1.3-1.046.929-.8,1.3-1.145a3.123,3.123,0,0,1,.4.411c.2.268.207.5.026.691a5.551,5.551,0,0,0-1.054,1.461,1.085,1.085,0,0,0,.242,1.063l10.981,14.607a1.02,1.02,0,0,0,.864.432,4.114,4.114,0,0,0,1.638-.631c.238-.121.462-.035.679.246a1.6,1.6,0,0,1,.164.277,1.3,1.3,0,0,1,.121.22c-.432.251-.791.488-1.145.73s-.648.432-1,.683-.657.471-.92.67a8.7,8.7,0,0,1-1.137.765.9.9,0,0,1-.657.048Z" transform="translate(-400.051 -442.298)"/>
    <path id="Caminho_32" data-name="Caminho 32" class="cls-3" d="M678.836,840.7l-9.075-16.681a1.184,1.184,0,0,0-1.145-.692,7.347,7.347,0,0,0-2.243.635c-.229.121-.432,0-.618-.315a3.418,3.418,0,0,1-.225-.566q1.037-.48,2.161-1.037t2.256-1.167c.73-.393,1.465-.817,2.208-1.258s1.439-.864,2.083-1.3a3.156,3.156,0,0,1,.35.5c.16.294.143.514-.043.67a8.99,8.99,0,0,0-1.772,1.573,1.15,1.15,0,0,0-.082,1.34l9.075,16.681,3.215-1.729a6.324,6.324,0,0,0,1.478-1.046,3.527,3.527,0,0,0,.8-1.163,3.84,3.84,0,0,0,.29-1.409c0-.523,0-1.111-.03-1.768a.432.432,0,0,1,.086-.328.786.786,0,0,1,.229-.207,1.093,1.093,0,0,1,.7-.134c.2.864.406,1.612.618,2.252s.38,1.176.51,1.608a5.139,5.139,0,0,1,.216,1.033.532.532,0,0,1-.285.562c-.143.078-.354.182-.64.307l-.895.406c-.311.143-.631.285-.951.432s-.622.3-.895.432L675.776,844c-.251.134-.527.3-.825.488s-.605.38-.9.575-.575.363-.825.527-.458.29-.627.38a.536.536,0,0,1-.631-.082,5.955,5.955,0,0,1-.765-.778q-.432-.527-1.063-1.322a14.258,14.258,0,0,0-1.538-1.677l.233-.285a.865.865,0,0,1,.294-.242.944.944,0,0,1,.315-.091.432.432,0,0,1,.333.1,16.148,16.148,0,0,0,1.435,1,4.04,4.04,0,0,0,1.322.536,3.492,3.492,0,0,0,1.4-.03,6.6,6.6,0,0,0,1.681-.67Z" transform="translate(-377.916 -464.677)"/>
    <path id="Caminho_33" data-name="Caminho 33" class="cls-3" d="M619.119,846.868l7.39-2.874.043-6.158a1.993,1.993,0,0,0-.091-.726q-.272-.7-2.407-.207a.432.432,0,0,1-.389-.06.8.8,0,0,1-.216-.315,2.884,2.884,0,0,1-.138-.557c.614-.186,1.253-.393,1.932-.618s1.331-.462,1.975-.713c.432-.169.89-.359,1.344-.562s.925-.432,1.409-.7a2.449,2.449,0,0,1,.272.5.994.994,0,0,1,.069.432.432.432,0,0,1-.268.333,6.2,6.2,0,0,0-1.383,1.016,1.616,1.616,0,0,0-.432,1.067l-.51,22.325c0,.432-.147.7-.432.808a2.015,2.015,0,0,1-.432.086l-15.726-16.694a1.56,1.56,0,0,0-1.18-.38,6.915,6.915,0,0,0-1.5.165.82.82,0,0,1-.383-.061.614.614,0,0,1-.276-.372,2.75,2.75,0,0,1-.138-.553c.722-.233,1.435-.462,2.131-.7s1.344-.467,1.94-.7,1.3-.532,2.1-.864,1.482-.661,2.1-.955a3.489,3.489,0,0,1,.277.506.635.635,0,0,1,.043.458.359.359,0,0,1-.169.2,7.743,7.743,0,0,0-1.245.92.752.752,0,0,0-.281.864,1.335,1.335,0,0,0,.328.432Zm1.059,1.154,6.236,6.914.056-9.369Z" transform="translate(-345.049 -473.229)"/>
  </g>
</svg>
