<svg id="Brand-icone-Versailles-C" xmlns="http://www.w3.org/2000/svg" width="400" height="400" viewBox="0 0 400 400">
  <defs>
    <style>
      .cls-1 {
        fill: #405941;
      }

      .cls-2 {
        fill: #f3eedd;
      }

      .cls-3 {
        fill: #f3b9ca;
      }
    </style>
  </defs>
  <circle id="Elipse_1" data-name="Elipse 1" class="cls-1" cx="200" cy="200" r="200"/>
  <path id="Caminho_1" data-name="Caminho 1" class="cls-2" d="M337.056,209.279A134.407,134.407,0,0,0,234.31,257.059a3.282,3.282,0,0,0-.289.306,0,0,0,0,1,0,0h0a2.69,2.69,0,0,0-.157.226,135.442,135.442,0,0,0,42.341,207.7,3.95,3.95,0,0,0,3.559-7.052,127.554,127.554,0,0,1-49.328-182.754,131.441,131.441,0,0,0,88.211,138.1,49.441,49.441,0,0,0,62.31,58.73,3.922,3.922,0,0,0,1.086-.209,135.486,135.486,0,0,0,89.853-127.556C471.892,269.963,411.407,209.279,337.056,209.279Zm0,7.908a126.857,126.857,0,0,1,106.377,57.922,133.828,133.828,0,0,0-115.915,87.655,131.557,131.557,0,0,0-83.625-104.633A126.423,126.423,0,0,1,337.056,217.187Zm33.3,109.706A115.774,115.774,0,0,0,339.339,382.1l-11.094,11.16a125.995,125.995,0,0,1,108.97-109.6l-11.031,11.1A121.3,121.3,0,0,0,370.352,326.893Zm42.633-19.387-56.1,56.947-5.566,5.6C362.164,342.407,384.967,319.279,412.985,307.507Zm-93.17,90.971c-.042.3-.072.592-.115.89l-7.509-13.386A119.689,119.689,0,0,0,296.777,324.6a113.256,113.256,0,0,0-43.694-44.013l-7.556-13.466a123.747,123.747,0,0,1,75.195,122.917Q320.137,394.23,319.814,398.477Zm-54.7-96.435-3.878-6.916c23.122,17.6,38.828,45.328,42.464,74.976Zm32.146,73.116c-23.122-17.6-38.828-45.328-42.459-74.976L293.4,368.267Zm-43.97-25.375a123.538,123.538,0,0,1-14.5-78.862l7.509,13.386a119.732,119.732,0,0,0,15.413,61.378A113.2,113.2,0,0,0,305.411,389.7l7.552,13.466A122.921,122.921,0,0,1,253.291,349.783ZM401.165,454.5a45.308,45.308,0,0,0-24.284-64.348,3.951,3.951,0,0,0-2.677,7.435,37.577,37.577,0,0,1,23.966,28.061c.115.6.2,1.2.288,1.8a31.1,31.1,0,0,0-52.187-3.107,3.945,3.945,0,1,0,6.343,4.694,23.307,23.307,0,1,1,36.8,28.593,36.232,36.232,0,0,1-3.254,3.26c-.025.021-.042.051-.068.072a23.225,23.225,0,0,1-3.5,2.375,41.157,41.157,0,0,1-15.837,3.145,41.7,41.7,0,0,1-28.446-72.031l-.064-.068,6.695-6.733a3.737,3.737,0,0,0,.713-.562l16.86-17.1,85.954-86.455a127.582,127.582,0,0,1-47.3,170.969Z" transform="translate(-137.056 -141.841)"/>
  <g id="Grupo_1" data-name="Grupo 1" transform="translate(27.36 27.474)">
    <path id="Caminho_2" data-name="Caminho 2" class="cls-3" d="M88.62,494.735a1.946,1.946,0,0,0-.6-.193.635.635,0,0,0-.63.34,4.555,4.555,0,0,0-.4,1.3c-.036.232-.233.336-.583.311a.7.7,0,0,1-.132-.025.692.692,0,0,0-.161-.025l-.232-.043c.032-.175.068-.39.107-.64s.072-.529.1-.833.064-.6.093-.909.057-.579.075-.837c.043-.569.072-1.109.089-1.631a11.462,11.462,0,0,0-.021-1.345l.236-.011a.608.608,0,0,1,.179-.018l.147.011c.372.025.562.157.562.393a3.754,3.754,0,0,0,.211,1.359,1.517,1.517,0,0,0,.733.687l16.793,8.5a1.15,1.15,0,0,1,.011.236c0,.057-.011.125-.014.207a.514.514,0,0,1-.111.333,1.058,1.058,0,0,1-.426.19L87.15,507.729a2.937,2.937,0,0,0-.383.165.884.884,0,0,0-.3.29,2,2,0,0,0-.229.529,8.553,8.553,0,0,0-.2.887c-.039.254-.254.365-.644.336l-.25-.018a.435.435,0,0,1-.243-.075c.039-.293.086-.622.132-.994s.089-.748.125-1.127.075-.751.111-1.112.064-.68.082-.951c.046-.644.082-1.352.111-2.118s.039-1.452.047-2.06a.779.779,0,0,1,.3-.036c.1.007.175.011.236.018.351.025.529.157.533.393a3.825,3.825,0,0,0,.2,1.341.625.625,0,0,0,.529.422,1.471,1.471,0,0,0,.476-.054l11.9-3.448Z" transform="translate(-84.904 -339.458)"/>
    <path id="Caminho_3" data-name="Caminho 3" class="cls-3" d="M94.086,445.569l6.936,1.481.869-4.056a.765.765,0,0,0-.286-.844,6.044,6.044,0,0,0-1.381-.655.365.365,0,0,1-.265-.236.85.85,0,0,1,.007-.39c.011-.057.036-.147.072-.272a1.494,1.494,0,0,1,.1-.265c.433.132.941.275,1.52.429s1.069.275,1.474.361c.343.075.755.154,1.23.233s1.016.157,1.62.229a.6.6,0,0,1,.014.29c-.018.125-.032.218-.043.275-.075.347-.247.5-.519.461a5.212,5.212,0,0,0-1.563.072.768.768,0,0,0-.54.622l-.869,4.056,6.446,1.377c.4.086.726-.107.966-.576a11.217,11.217,0,0,0,.744-2.49l.258-1.209a4.086,4.086,0,0,0,.079-1.5,3.441,3.441,0,0,0-.422-1.188,4.572,4.572,0,0,0-.8-1.016c-.325-.311-.694-.63-1.105-.959a.4.4,0,0,1-.114-.447.985.985,0,0,1,.161-.329l.258-.365c.147.072.283.147.4.222s.25.15.376.215a3.826,3.826,0,0,0,.64.379,5.58,5.58,0,0,1,.569.3l.619.268.662.29c.211.1.4.186.558.272s.272.143.326.175a.478.478,0,0,1,.132.512q-.048.231-.172.655c-.079.283-.161.594-.243.926s-.168.672-.261,1.012-.168.637-.218.887l-1.4,6.531q-.177.837-.365,1.924t-.315,1.964a.727.727,0,0,1-.315-.007l-.275-.061q-.435-.091-.4-.386a6.824,6.824,0,0,0-.1-1.66.84.84,0,0,0-.7-.647l-14.418-3.08a1.167,1.167,0,0,0-.494-.014.728.728,0,0,0-.386.265,2.953,2.953,0,0,0-.365.583c-.122.243-.265.562-.429.948-.1.179-.293.24-.579.179-.1-.021-.186-.039-.275-.057a.732.732,0,0,1-.261-.118c.232-.812.429-1.535.583-2.16s.283-1.173.379-1.635l1.263-5.9c.186-.862.315-1.613.39-2.246s.139-1.069.186-1.3a.5.5,0,0,1,.358-.4,3.883,3.883,0,0,1,.88.039,10.519,10.519,0,0,0,1.323.072c.34.011.669.014.991,0s.723-.046,1.2-.107c.018.1.032.218.046.34a1.085,1.085,0,0,1-.018.358.493.493,0,0,1-.358.4,12.3,12.3,0,0,0-1.427.4,3.342,3.342,0,0,0-1.023.565,2.656,2.656,0,0,0-.683.876,5.642,5.642,0,0,0-.429,1.306Z" transform="translate(-89.2 -306.509)"/>
    <path id="Caminho_4" data-name="Caminho 4" class="cls-3" d="M117.448,390.153l-.436,1.188,5.773,2.117a.972.972,0,0,0,1.095-.211,6.852,6.852,0,0,0,1.1-1.681c.132-.243.361-.308.694-.186a2.575,2.575,0,0,1,.476.24c-.233.519-.511,1.177-.83,1.967s-.655,1.656-1,2.6c-.243.662-.465,1.309-.662,1.935s-.379,1.213-.537,1.76a.594.594,0,0,1-.268-.036c-.093-.036-.165-.061-.222-.082-.311-.114-.451-.279-.415-.5.068-.415.114-.751.139-1.016a2.208,2.208,0,0,0-.018-.633.681.681,0,0,0-.207-.376A1.39,1.39,0,0,0,121.7,397l-13.843-5.076a.924.924,0,0,0-.948.107,4.453,4.453,0,0,0-.948,1.391.55.55,0,0,1-.247.161.717.717,0,0,1-.418-.061c-.072-.029-.157-.057-.247-.089a.39.39,0,0,1-.2-.136q.338-.751.751-1.746c.275-.662.508-1.259.7-1.8l1.531-4.171a9.373,9.373,0,0,1,1.323-2.493,6.209,6.209,0,0,1,1.746-1.6,4.751,4.751,0,0,1,2.032-.665,5.051,5.051,0,0,1,2.175.311,4.626,4.626,0,0,1,2.336,1.874,5.8,5.8,0,0,1,.9,3.137l7.919-2.017a2.873,2.873,0,0,0,1.416-.783,8.561,8.561,0,0,0,.855-1.048.417.417,0,0,1,.2-.175.57.57,0,0,1,.376.043c.075.029.157.057.25.089a.733.733,0,0,1,.254.157c-.093.2-.211.476-.354.841s-.3.74-.461,1.13-.322.78-.479,1.173-.279.719-.372.976a1.938,1.938,0,0,1-.909.984,6.762,6.762,0,0,1-1.7.662Zm-1.513-.147a6.914,6.914,0,0,0,.4-1.61A3.158,3.158,0,0,0,116.2,387a2.742,2.742,0,0,0-.783-1.152,4.979,4.979,0,0,0-1.588-.88,4.38,4.38,0,0,0-3.012-.165,3.877,3.877,0,0,0-2.067,2.565l-.3.83,7.182,2.633Z" transform="translate(-98.423 -270.84)"/>
    <path id="Caminho_5" data-name="Caminho 5" class="cls-3" d="M143.587,326.422a1.79,1.79,0,0,1-.179.537.756.756,0,0,1-.826.5,5.141,5.141,0,0,0-2.947.44,5.013,5.013,0,0,0-1.978,2.2,4.045,4.045,0,0,0-.494,2.447,2.393,2.393,0,0,0,1.413,1.846,2.218,2.218,0,0,0,1.9.143,7.33,7.33,0,0,0,1.9-1.134c.644-.515,1.309-1.087,1.989-1.717a12.813,12.813,0,0,1,2.171-1.624,6.335,6.335,0,0,1,2.461-.841,4.826,4.826,0,0,1,2.826.626,6.348,6.348,0,0,1,1.753,1.345,4.984,4.984,0,0,1,1.1,1.935,5.97,5.97,0,0,1,.182,2.45,8.465,8.465,0,0,1-.969,2.912,13.159,13.159,0,0,1-1.974,2.887,14.564,14.564,0,0,1-1.974,1.824c-.773-.336-1.552-.637-2.332-.9s-1.549-.5-2.3-.715a1.8,1.8,0,0,1,.207-.655.9.9,0,0,1,.361-.408.976.976,0,0,1,.54-.05,10.838,10.838,0,0,0,2.1.132,4.892,4.892,0,0,0,1.678-.354,3.876,3.876,0,0,0,1.323-.919,6.615,6.615,0,0,0,1.073-1.549,4.333,4.333,0,0,0,.5-1.5,3,3,0,0,0-.1-1.245,2.692,2.692,0,0,0-.576-1,3.372,3.372,0,0,0-.923-.715,2.7,2.7,0,0,0-2.1-.279,5.993,5.993,0,0,0-1.9,1.034q-.928.73-1.885,1.638a11.535,11.535,0,0,1-2.042,1.56,5.928,5.928,0,0,1-2.346.8,4.892,4.892,0,0,1-2.829-.662,5.623,5.623,0,0,1-1.753-1.391,4.978,4.978,0,0,1-.991-1.928,6.111,6.111,0,0,1-.139-2.314,7.466,7.466,0,0,1,.837-2.565,11.825,11.825,0,0,1,1.384-2.082,18.328,18.328,0,0,1,2.1-2.11q.81.354,1.849.748T143.587,326.422Z" transform="translate(-119.171 -235.854)"/>
    <path id="Caminho_6" data-name="Caminho 6" class="cls-3" d="M179.91,292.866l-3.509,5.086,2.5,3.584a.893.893,0,0,0,.2.279,1.949,1.949,0,0,0,.2.175.616.616,0,0,0,.612.047,3.565,3.565,0,0,0,1-.83.478.478,0,0,1,.694-.021,2.642,2.642,0,0,1,.379.333q-.5.622-1.037,1.323c-.358.469-.7.937-1.023,1.4-.222.322-.451.669-.68,1.034s-.469.783-.723,1.252a.544.544,0,0,1-.25-.1c-.079-.057-.147-.1-.193-.132-.308-.211-.4-.429-.268-.647a5.414,5.414,0,0,0,.429-1.295,1.461,1.461,0,0,0-.222-.923L168.1,287.962a.753.753,0,0,1-.011-.866,2.857,2.857,0,0,1,.179-.233c.064-.075.136-.154.222-.24l18.414,4.1a1.2,1.2,0,0,0,.93-.182,4.181,4.181,0,0,0,.873-.719.528.528,0,0,1,.737-.029,2.644,2.644,0,0,1,.4.351q-.585.74-1.137,1.467t-1.009,1.381c-.157.225-.34.5-.554.83s-.433.669-.647,1.019-.436.694-.658,1.03-.4.622-.54.862a.573.573,0,0,1-.254-.1c-.079-.057-.143-.1-.193-.132a.642.642,0,0,1-.268-.311.407.407,0,0,1-.007-.275,4.252,4.252,0,0,0,.365-1.123.616.616,0,0,0-.261-.63,1.478,1.478,0,0,0-.415-.179Zm-1.527-.376-6.868-1.7,3.992,5.87Z" transform="translate(-141.194 -211.668)"/>
    <path id="Caminho_7" data-name="Caminho 7" class="cls-3" d="M209.5,250.942a2.174,2.174,0,0,0,.393.286.607.607,0,0,0,.411.043,1.659,1.659,0,0,0,.554-.258,7.8,7.8,0,0,0,.79-.619q.236-.182.569.107c.043.039.107.1.19.186a2.2,2.2,0,0,1,.193.225c-.44.447-.909.934-1.4,1.452s-.919.991-1.281,1.4q-.558.644-1.22,1.474c-.44.551-.855,1.077-1.238,1.577a.638.638,0,0,1-.261-.15c-.089-.079-.157-.136-.2-.175-.236-.207-.3-.39-.186-.551a7.953,7.953,0,0,0,.5-.869,1.456,1.456,0,0,0,.168-.576.734.734,0,0,0-.1-.4,1.634,1.634,0,0,0-.329-.361l-11.128-9.672a1.765,1.765,0,0,0-.4-.275.713.713,0,0,0-.411-.043,1.531,1.531,0,0,0-.547.247,7.8,7.8,0,0,0-.79.619.45.45,0,0,1-.572-.107c-.043-.039-.111-.1-.2-.175a.774.774,0,0,1-.2-.258c.44-.447.9-.93,1.391-1.441s.916-.984,1.288-1.416c.361-.415.762-.9,1.213-1.463s.862-1.087,1.245-1.588c.086.05.179.111.275.179l.211.161a.455.455,0,0,1,.186.551,8.742,8.742,0,0,0-.5.869,1.643,1.643,0,0,0-.179.587.607.607,0,0,0,.1.4,2.124,2.124,0,0,0,.336.351Z" transform="translate(-158.029 -181.28)"/>
    <path id="Caminho_8" data-name="Caminho 8" class="cls-3" d="M233.029,225.125c.283.3.665.318,1.145.054a11.719,11.719,0,0,0,2.046-1.649l.812-.769a4.435,4.435,0,0,0,.819-1,2.376,2.376,0,0,0,.322-1.052,4.027,4.027,0,0,0-.132-1.23,10.965,10.965,0,0,0-.522-1.513c-.064-.154-.011-.311.161-.476a.969.969,0,0,1,.318-.179l.422-.154q.478.848,1.095,1.778c.411.622.826,1.223,1.238,1.8.15.186.2.336.165.451a.712.712,0,0,1-.186.3c-.114.107-.283.25-.5.433s-.454.383-.7.6-.508.444-.769.665-.486.418-.672.594l-4.854,4.589q-.622.585-1.391,1.377t-1.374,1.438a.652.652,0,0,1-.254-.182q-.129-.139-.193-.2c-.2-.215-.236-.4-.111-.544a6.665,6.665,0,0,0,.862-1.424.841.841,0,0,0-.211-.934l-10.126-10.716a1.682,1.682,0,0,0-.376-.311.741.741,0,0,0-.4-.086,1.52,1.52,0,0,0-.569.193,7.969,7.969,0,0,0-.848.537q-.274.14-.558-.161-.059-.064-.182-.193a.889.889,0,0,1-.179-.275c.483-.4.991-.837,1.524-1.3s1-.883,1.4-1.263c.2-.19.426-.408.676-.658s.511-.508.783-.78.54-.544.8-.819.5-.529.719-.758a2.883,2.883,0,0,1,.254.2q.134.118.193.182c.19.2.232.39.129.565a4.6,4.6,0,0,0-.916,1.5.962.962,0,0,0,.286.923Z" transform="translate(-174.647 -170.692)"/>
    <path id="Caminho_9" data-name="Caminho 9" class="cls-3" d="M274.345,189.715q.365.5,1.127.193a11.638,11.638,0,0,0,2.232-1.388l.9-.662a4.483,4.483,0,0,0,.934-.891,2.385,2.385,0,0,0,.447-1.005,4.042,4.042,0,0,0,.021-1.238,10.9,10.9,0,0,0-.333-1.567q-.07-.241.215-.451a.96.96,0,0,1,.336-.14c.143-.032.29-.068.436-.1q.37.9.869,1.9c.333.669.672,1.316,1.009,1.942.125.2.161.358.111.469a.716.716,0,0,1-.222.272c-.125.093-.311.215-.551.368s-.5.326-.773.515-.554.379-.844.565-.533.358-.74.508l-5.376,3.963c-.458.336-.977.737-1.549,1.195s-1.087.88-1.538,1.263a.674.674,0,0,1-.233-.215c-.075-.1-.132-.179-.165-.225-.175-.236-.19-.422-.043-.554a6.828,6.828,0,0,0,1.03-1.306.833.833,0,0,0-.1-.951L262.8,180.3a1.618,1.618,0,0,0-.336-.354.7.7,0,0,0-.39-.132,1.474,1.474,0,0,0-.587.122,7.9,7.9,0,0,0-.9.429c-.193.068-.372-.007-.533-.229-.036-.047-.086-.118-.157-.215a.813.813,0,0,1-.143-.3c.529-.34,1.084-.708,1.67-1.105s1.1-.755,1.542-1.08c.222-.161.472-.354.751-.569s.569-.444.869-.68.6-.472.9-.715.565-.465.8-.665a2.909,2.909,0,0,1,.229.236c.079.089.132.157.168.2a.45.45,0,0,1,.061.576,4.631,4.631,0,0,0-1.091,1.37.965.965,0,0,0,.172.951Z" transform="translate(-194.896 -145.955)"/>
    <path id="Caminho_10" data-name="Caminho 10" class="cls-3" d="M312.046,141.032l3.455,6.2,3.623-2.021a.762.762,0,0,0,.447-.769,6.076,6.076,0,0,0-.415-1.47.368.368,0,0,1,0-.358.851.851,0,0,1,.3-.25c.054-.029.136-.068.254-.122a1.175,1.175,0,0,1,.265-.1c.186.415.411.887.676,1.424s.5.984.7,1.345c.172.308.383.669.633,1.077s.551.866.9,1.37a.571.571,0,0,1-.211.2q-.161.107-.236.15c-.311.172-.54.143-.69-.086a5.228,5.228,0,0,0-1.084-1.13.761.761,0,0,0-.823,0l-3.623,2.021,3.208,5.759a.85.85,0,0,0,1.07.347,11.285,11.285,0,0,0,2.361-1.08l1.08-.6a4.1,4.1,0,0,0,1.184-.93,3.454,3.454,0,0,0,.615-1.1,4.508,4.508,0,0,0,.232-1.273c.021-.447.018-.937-.007-1.463-.014-.15.072-.275.261-.379a.982.982,0,0,1,.351-.1c.147-.014.3-.032.447-.047.039.157.075.308.1.451s.054.286.086.426a4.05,4.05,0,0,0,.139.733,5.314,5.314,0,0,1,.147.626c.061.19.129.4.207.644s.147.469.218.687.122.422.165.6.072.3.082.358a.475.475,0,0,1-.3.436c-.136.075-.34.179-.608.3s-.551.268-.855.426-.615.315-.934.469-.59.293-.812.418l-5.834,3.251q-.746.418-1.688.991t-1.685,1.059a.675.675,0,0,1-.2-.243c-.061-.111-.107-.193-.136-.243-.143-.258-.132-.44.029-.554a6.819,6.819,0,0,0,1.184-1.166.838.838,0,0,0,.025-.955l-7.179-12.877a1.116,1.116,0,0,0-.315-.383.73.73,0,0,0-.451-.118,2.861,2.861,0,0,0-.68.111c-.265.068-.594.168-.994.3-.2.043-.372-.064-.515-.318-.05-.086-.093-.168-.136-.243a.783.783,0,0,1-.086-.272q1.148-.537,2.01-.987t1.481-.79l5.269-2.937q1.159-.644,1.949-1.188c.526-.361.894-.6,1.1-.715a.5.5,0,0,1,.54,0,3.755,3.755,0,0,1,.551.687,10.559,10.559,0,0,0,.819,1.044c.215.265.433.511.655.748s.512.511.869.83c-.068.082-.143.168-.225.261a1.032,1.032,0,0,1-.279.222.5.5,0,0,1-.54,0,12.145,12.145,0,0,0-1.241-.808,3.352,3.352,0,0,0-1.1-.4,2.666,2.666,0,0,0-1.109.064,5.512,5.512,0,0,0-1.266.537Z" transform="translate(-224.015 -119.56)"/>
    <path id="Caminho_11" data-name="Caminho 11" class="cls-3" d="M377.318,119.989a1.8,1.8,0,0,1-.486.293.868.868,0,0,1-.6.072.759.759,0,0,1-.343-.225,5.157,5.157,0,0,0-2.529-1.577,4.988,4.988,0,0,0-2.937.4,4.087,4.087,0,0,0-1.964,1.542,2.4,2.4,0,0,0-.122,2.321,2.22,2.22,0,0,0,1.352,1.341,7.22,7.22,0,0,0,2.182.368q1.239.038,2.629-.018a13,13,0,0,1,2.7.172,6.388,6.388,0,0,1,2.422.955,4.807,4.807,0,0,1,1.746,2.307,6.387,6.387,0,0,1,.465,2.16,4.98,4.98,0,0,1-.415,2.185,5.96,5.96,0,0,1-1.449,1.985,8.534,8.534,0,0,1-2.625,1.588,13.188,13.188,0,0,1-3.373.916,14.407,14.407,0,0,1-2.686.107q-.558-1.137-1.191-2.2c-.426-.7-.851-1.384-1.288-2.035a1.843,1.843,0,0,1,.583-.365.855.855,0,0,1,.54-.075.964.964,0,0,1,.444.311,10.836,10.836,0,0,0,1.517,1.467,4.923,4.923,0,0,0,1.506.819,3.878,3.878,0,0,0,1.6.157,6.706,6.706,0,0,0,1.821-.483,4.285,4.285,0,0,0,1.352-.819,3.075,3.075,0,0,0,.733-1.012,2.653,2.653,0,0,0,.207-1.134,3.424,3.424,0,0,0-.24-1.141,2.705,2.705,0,0,0-1.416-1.574,5.95,5.95,0,0,0-2.118-.444c-.787-.032-1.62-.021-2.5.025a11.489,11.489,0,0,1-2.565-.136,5.964,5.964,0,0,1-2.307-.909A4.882,4.882,0,0,1,366.24,125a5.689,5.689,0,0,1-.429-2.2,5.026,5.026,0,0,1,.494-2.107,6.153,6.153,0,0,1,1.391-1.853,7.459,7.459,0,0,1,2.3-1.409,11.914,11.914,0,0,1,2.4-.69,18.749,18.749,0,0,1,2.965-.25q.386.794.923,1.767T377.318,119.989Z" transform="translate(-261.944 -106.429)"/>
    <path id="Caminho_12" data-name="Caminho 12" class="cls-3" d="M445.886,127.493a3.453,3.453,0,0,1-.036-1.395,3.751,3.751,0,0,1,.483-1.306,3.633,3.633,0,0,1,.951-1.037,3.543,3.543,0,0,1,1.338-.612,3.244,3.244,0,0,1,1.4-.025,3.578,3.578,0,0,1,1.255.526,3.738,3.738,0,0,1,1.549,2.239,4.09,4.09,0,0,1,.075,1.5,3.4,3.4,0,0,1-1.352,2.293,3.305,3.305,0,0,1-1.27.583,3.767,3.767,0,0,1-1.467.054,3.454,3.454,0,0,1-2.314-1.441A3.742,3.742,0,0,1,445.886,127.493Z" transform="translate(-312.869 -110.875)"/>
    <path id="Caminho_13" data-name="Caminho 13" class="cls-3" d="M502.866,89.5a.893.893,0,0,0-.5-.794,4.976,4.976,0,0,0-1.638-.275c-.2-.021-.311-.179-.34-.472a2.28,2.28,0,0,1,.018-.476c.63-.018,1.281-.043,1.957-.079s1.238-.072,1.688-.111c.469-.043,1.027-.111,1.681-.2s1.259-.179,1.824-.272a2.915,2.915,0,0,1,.1.465c.029.311-.064.49-.275.529a4.42,4.42,0,0,0-1.441.562.92.92,0,0,0-.318.873L506.8,101.94a30.948,30.948,0,0,1,.15,3.534,8.185,8.185,0,0,1-.519,2.722,8.54,8.54,0,0,1-1.459,2.411,21.54,21.54,0,0,1-2.658,2.565.8.8,0,0,1-.436-.579.473.473,0,0,1,.114-.365,9.673,9.673,0,0,0,1.992-3.377,9.466,9.466,0,0,0,.336-3.724Z" transform="translate(-347.34 -86.32)"/>
    <path id="Caminho_14" data-name="Caminho 14" class="cls-3" d="M540.507,97.771l-6.56-.107-1.96,4.707a1.516,1.516,0,0,0-.157.587q-.011.617,1.781.912a.369.369,0,0,1,.279.165.624.624,0,0,1,.068.311,2.614,2.614,0,0,1-.068.469q-.794-.07-1.674-.129c-.587-.039-1.166-.064-1.735-.072-.39-.007-.794,0-1.205.011s-.844.047-1.295.1a2.121,2.121,0,0,1-.054-.472.805.805,0,0,1,.079-.351.367.367,0,0,1,.311-.172,5.23,5.23,0,0,0,1.377-.347,1.353,1.353,0,0,0,.672-.68l7.368-16.951c.14-.333.329-.494.565-.49a1.44,1.44,0,0,1,.351.064l6.835,17.709a1.316,1.316,0,0,0,.783.662,5.711,5.711,0,0,0,1.2.343.733.733,0,0,1,.275.165.512.512,0,0,1,.1.368,2.923,2.923,0,0,1-.064.469c-.63-.05-1.245-.093-1.853-.132s-1.177-.064-1.706-.072c-.551-.007-1.177,0-1.885.014s-1.345.039-1.914.072a2.781,2.781,0,0,1-.054-.472.509.509,0,0,1,.111-.365.29.29,0,0,1,.193-.1,6.774,6.774,0,0,0,1.241-.318c.315-.122.476-.311.479-.565a1.123,1.123,0,0,0-.111-.444Zm-.451-1.216L537.438,89.3l-2.969,7.161Z" transform="translate(-363.828 -85.259)"/>
    <path id="Caminho_15" data-name="Caminho 15" class="cls-3" d="M600.861,99.1l-2.153-.329-.98,6.4a.872.872,0,0,0,.465.962,8,8,0,0,0,1.76.655c.225.075.318.258.272.547a2.727,2.727,0,0,1-.132.486q-.778-.177-1.889-.393t-2.189-.379c-.508-.075-1.091-.15-1.753-.222s-1.291-.132-1.878-.182a2.144,2.144,0,0,1,.014-.476c.039-.272.172-.411.39-.415a5.175,5.175,0,0,0,1.62-.186.882.882,0,0,0,.579-.758L597.248,90a.941.941,0,0,0-.293-.894,4.352,4.352,0,0,0-1.581-.672c-.19-.05-.265-.229-.215-.54a2.574,2.574,0,0,1,.129-.458c.576.129,1.173.254,1.788.376s1.205.229,1.767.315l3.927.6a7.144,7.144,0,0,1,4.528,2.107,4.748,4.748,0,0,1,1.03,3.981,4.585,4.585,0,0,1-.422,1.306,5.472,5.472,0,0,1-.876,1.266,5.728,5.728,0,0,1-1.352,1.059,6.035,6.035,0,0,1-1.813.662l3.827,7.49a3.052,3.052,0,0,0,1.062,1.234,8.165,8.165,0,0,0,1.184.626c.168.064.236.215.2.447a2.639,2.639,0,0,1-.136.515c-.44-.107-.98-.225-1.613-.351s-1.227-.232-1.767-.315a1.971,1.971,0,0,1-1.155-.712,6.517,6.517,0,0,1-.977-1.517Zm-.429-1.284a5.075,5.075,0,0,0,3.273-.379,3.635,3.635,0,0,0,1.563-2.84,5.735,5.735,0,0,0,.021-1.692,3.422,3.422,0,0,0-.54-1.424,3.517,3.517,0,0,0-1.205-1.077,5.7,5.7,0,0,0-1.971-.63l-1.452-.222-1.227,8.027Z" transform="translate(-404.589 -86.734)"/>
    <path id="Caminho_16" data-name="Caminho 16" class="cls-3" d="M670.157,113.329a10.235,10.235,0,0,1-1.606,3.1,8.957,8.957,0,0,1-6.27,3.573,10.561,10.561,0,0,1-4.421-.508l-5.755-1.8c-.487-.154-1.044-.311-1.67-.476s-1.238-.322-1.828-.465a2.526,2.526,0,0,1,.086-.469c.082-.261.233-.379.447-.354a7.894,7.894,0,0,0,1.638-.011.8.8,0,0,0,.676-.59l4.478-14.293a.85.85,0,0,0-.175-.919,6.063,6.063,0,0,0-1.384-.9.321.321,0,0,1-.186-.243.709.709,0,0,1,.025-.333,2.382,2.382,0,0,1,.2-.433c.379.161.715.293,1,.39s.562.2.816.3.511.19.765.268.519.165.8.25l5.755,1.8a11.387,11.387,0,0,1,3.913,2.028,8.815,8.815,0,0,1,2.346,2.894,8.447,8.447,0,0,1,.862,3.448A10.92,10.92,0,0,1,670.157,113.329Zm-3.115-.39q1.352-4.324-.139-7.089t-5.619-4.06l-2.443-.765-4.682,14.937a.871.871,0,0,0-.011.522.951.951,0,0,0,.383.458,4.434,4.434,0,0,0,.873.458c.383.161.873.336,1.47.522a11.716,11.716,0,0,0,3.813.626,6.309,6.309,0,0,0,2.883-.733,6.08,6.08,0,0,0,2.082-1.921A10.869,10.869,0,0,0,667.042,112.939Z" transform="translate(-439.598 -94.039)"/>
    <path id="Caminho_17" data-name="Caminho 17" class="cls-3" d="M717.71,140.086a.839.839,0,0,0,.043.909,6.451,6.451,0,0,0,1.209,1.044c.161.118.186.3.075.551a2.449,2.449,0,0,1-.247.4c-.536-.286-1.08-.565-1.624-.841s-1.066-.526-1.563-.751-1.023-.444-1.613-.676-1.159-.451-1.692-.647a2.239,2.239,0,0,1,.14-.454c.111-.25.265-.354.461-.308a5.567,5.567,0,0,0,1.577.225.879.879,0,0,0,.715-.583L721.33,125.3a.9.9,0,0,0-.032-.934,4.67,4.67,0,0,0-1.22-1.016.28.28,0,0,1-.143-.258.8.8,0,0,1,.079-.318,2.734,2.734,0,0,1,.247-.4c.522.279,1.066.558,1.635.848s1.087.537,1.552.744c.447.2.969.418,1.56.655s1.177.458,1.745.672a2.239,2.239,0,0,1-.139.454c-.122.268-.279.379-.476.336a4.73,4.73,0,0,0-1.57-.24.9.9,0,0,0-.719.6Z" transform="translate(-480.478 -110.409)"/>
    <path id="Caminho_18" data-name="Caminho 18" class="cls-3" d="M754.471,157.2l6.288-10.573a.955.955,0,0,0,.061-1.023,4.758,4.758,0,0,0-1.155-1.166c-.175-.129-.182-.326-.021-.6a2.828,2.828,0,0,1,.29-.376c.4.286.812.569,1.238.855s.83.544,1.216.776.765.44,1.184.655.833.422,1.241.619a2.685,2.685,0,0,1-.19.436c-.161.268-.329.361-.508.279a3.38,3.38,0,0,0-1.388-.347.966.966,0,0,0-.751.547l-8.86,14.9a.6.6,0,0,1-.2-.068c-.089-.043-.161-.079-.211-.107a.745.745,0,0,1-.275-.283,1.518,1.518,0,0,1-.136-.576l-2.218-19.637-7.086,11.911a.874.874,0,0,0-.068.919,5.612,5.612,0,0,0,1.141,1.191c.147.136.154.318.011.554a2.835,2.835,0,0,1-.29.376q-.6-.429-1.223-.848t-1.18-.751c-.336-.2-.74-.422-1.209-.669s-.9-.461-1.291-.647a2.677,2.677,0,0,1,.19-.436c.139-.236.315-.315.519-.24a4.546,4.546,0,0,0,1.452.351.9.9,0,0,0,.737-.519l7.733-13a.846.846,0,0,0,.079-.794,3.469,3.469,0,0,0-1-1.055c-.164-.143-.172-.343-.021-.6a1.125,1.125,0,0,1,.161-.211.79.79,0,0,1,.129-.161c.318.236.622.451.916.647.261.179.54.361.837.551s.565.354.8.494a6.656,6.656,0,0,1,.944.63.75.75,0,0,1,.243.486Z" transform="translate(-495.96 -120.249)"/>
    <path id="Caminho_19" data-name="Caminho 19" class="cls-3" d="M800.74,199.506l-5.119-4.106-4.432,2.518a1.512,1.512,0,0,0-.483.368q-.386.483.848,1.81a.364.364,0,0,1,.118.3.639.639,0,0,1-.136.286,2.767,2.767,0,0,1-.34.329c-.39-.361-.8-.737-1.245-1.13s-.883-.765-1.327-1.12c-.308-.247-.626-.49-.962-.733s-.694-.483-1.084-.719a2,2,0,0,1,.247-.4.782.782,0,0,1,.279-.229.362.362,0,0,1,.351.054,5.147,5.147,0,0,0,1.3.569,1.347,1.347,0,0,0,.948-.125l16.21-8.881c.315-.175.565-.186.747-.039a1.744,1.744,0,0,1,.24.265L801.448,206.7a1.3,1.3,0,0,0,.215,1,5.913,5.913,0,0,0,.737,1.009.693.693,0,0,1,.118.3.519.519,0,0,1-.147.351,2.519,2.519,0,0,1-.34.333c-.465-.426-.926-.837-1.381-1.241s-.891-.769-1.306-1.1-.926-.726-1.5-1.145-1.087-.79-1.556-1.116a2.786,2.786,0,0,1,.247-.4.509.509,0,0,1,.311-.222.3.3,0,0,1,.215.039,6.717,6.717,0,0,0,1.177.508.621.621,0,0,0,.726-.154,1.092,1.092,0,0,0,.182-.418Zm.39-1.234,2.375-7.336-6.739,3.838Z" transform="translate(-526.624 -154.995)"/>
    <path id="Caminho_20" data-name="Caminho 20" class="cls-3" d="M852.006,245.578q-1.078-.8-2.121-1.72t-2.314-2.268a11.559,11.559,0,0,1-2.457-3.727,8.635,8.635,0,0,1-.6-3.691,8.424,8.424,0,0,1,1.023-3.487,12.385,12.385,0,0,1,2.447-3.13,10.986,10.986,0,0,1,2.983-1.982,9.346,9.346,0,0,1,7.354-.193,9.8,9.8,0,0,1,3.62,2.536c.4.429.78.848,1.127,1.263s.676.841.98,1.281.6.894.894,1.359.594.984.908,1.549q-.708.751-1.4,1.624t-1.284,1.792a.458.458,0,0,1-.225-.111,1.888,1.888,0,0,1-.222-.193.542.542,0,0,1-.125-.69,4.709,4.709,0,0,0,.826-3.244,6.437,6.437,0,0,0-1.86-3.219,8.15,8.15,0,0,0-2.708-1.978,6.455,6.455,0,0,0-2.833-.544,7.149,7.149,0,0,0-2.822.737,10.619,10.619,0,0,0-2.668,1.867,11.045,11.045,0,0,0-2.307,3,9.355,9.355,0,0,0-1.016,3.216,7.351,7.351,0,0,0,.3,3.112,7.2,7.2,0,0,0,1.635,2.726,12.775,12.775,0,0,0,1.266,1.173,9.081,9.081,0,0,0,1.213.858l3.276-3.087a1.217,1.217,0,0,0,.479-1.1,4.056,4.056,0,0,0-.755-1.47.383.383,0,0,1-.072-.376.828.828,0,0,1,.2-.308,1.876,1.876,0,0,1,.383-.279c.361.44.769.923,1.216,1.441s.848.966,1.2,1.338.758.787,1.234,1.245.891.851,1.252,1.184a2.219,2.219,0,0,1-.3.365.562.562,0,0,1-.358.2.468.468,0,0,1-.268-.093,2.826,2.826,0,0,0-1.187-.68,1.022,1.022,0,0,0-.884.326l-3.816,3.591a.671.671,0,0,1-.422.2A1.679,1.679,0,0,1,852.006,245.578Z" transform="translate(-557.409 -172.77)"/>
    <path id="Caminho_21" data-name="Caminho 21" class="cls-3" d="M893.729,270.892l-6.156,4.339,2.647,3.752a.854.854,0,0,0,.951.354,6.21,6.21,0,0,0,1.374-.479.477.477,0,0,1,.619.211,1.111,1.111,0,0,1,.111.211c.039.093.072.168.089.225-.376.215-.8.472-1.263.762s-.869.558-1.2.794c-.275.193-.6.436-.984.726s-.8.64-1.266,1.037a1.8,1.8,0,0,1-.3-.326.5.5,0,0,1-.011-.676,6.476,6.476,0,0,0,.916-1.13.864.864,0,0,0-.014-1.016l-2.647-3.752-5.677,4c-.336.236-.411.612-.218,1.123a11.691,11.691,0,0,0,1.341,2.261l.934,1.323a4.022,4.022,0,0,0,1.062,1.069,3.81,3.81,0,0,0,1.195.526,4.894,4.894,0,0,0,1.331.125,13.253,13.253,0,0,0,1.481-.143c.147-.032.286.05.422.243a.641.641,0,0,1,.107.3q.021.182.032.354a7.327,7.327,0,0,0-1.356.4c-.5.2-.973.379-1.427.554a10.034,10.034,0,0,1-1.2.393c-.347.089-.576.05-.69-.107q-.134-.193-.365-.569c-.154-.25-.326-.522-.515-.808s-.379-.579-.565-.88-.354-.554-.5-.762l-3.713-5.269c-.329-.465-.69-.951-1.087-1.466s-.78-1-1.152-1.456a2.316,2.316,0,0,1,.351-.318c.225-.157.411-.168.554-.032a6.709,6.709,0,0,0,1.284,1.055.83.83,0,0,0,.951-.079l12.24-8.631a.82.82,0,0,0,.415-.816,6.928,6.928,0,0,0-.583-1.62c-.082-.182,0-.358.24-.529a1.53,1.53,0,0,1,.215-.132c.061-.032.129-.061.207-.093q.655,1.084,1.123,1.8t.858,1.266l3.337,4.739q.767,1.084,1.395,1.824t.816,1.009a.538.538,0,0,1-.1.7,9.262,9.262,0,0,1-.823.851c-.336.308-.687.64-1.059,1a3.41,3.41,0,0,0-.8,1.105.873.873,0,0,1-.451-.333.488.488,0,0,1-.072-.562,14.692,14.692,0,0,0,.68-1.309,3.432,3.432,0,0,0,.3-1.13,2.845,2.845,0,0,0-.161-1.148,5.435,5.435,0,0,0-.712-1.316Z" transform="translate(-578.787 -198.598)"/>
    <path id="Caminho_22" data-name="Caminho 22" class="cls-3" d="M931.6,334.981a2.423,2.423,0,0,1,.272.018.468.468,0,0,1,.268.15,2.87,2.87,0,0,1,.3.379,5.561,5.561,0,0,1,.4.723c.068.139.161.326.283.551s.247.469.386.73.283.522.433.787.29.508.418.73a2.381,2.381,0,0,1-.4.258c-.283.136-.476.122-.579-.047a3.6,3.6,0,0,0-.973-1.1.781.781,0,0,0-.751-.029c-.018.007-.243.136-.683.379s-1.17.647-2.193,1.213-2.389,1.309-4.1,2.236-3.834,2.075-6.378,3.441a1.039,1.039,0,0,0-.576.7,3.607,3.607,0,0,0,.233,1.488.312.312,0,0,1-.047.268.6.6,0,0,1-.247.2,2.439,2.439,0,0,1-.447.154c-.265-.633-.508-1.209-.723-1.728s-.429-.984-.637-1.409q-.129-.263-.333-.655c-.136-.261-.283-.533-.433-.819s-.3-.569-.458-.841-.29-.511-.411-.715a2.251,2.251,0,0,1,.4-.258c.283-.136.469-.118.551.061a6.311,6.311,0,0,0,1.123,1.238.833.833,0,0,0,.9.036c.054-.025.372-.2.962-.515s1.3-.708,2.146-1.173,1.756-.962,2.743-1.5,1.91-1.037,2.783-1.513,1.617-.887,2.246-1.238,1.012-.558,1.152-.626l-16.819,1a2.051,2.051,0,0,1-.454-.025.32.32,0,0,1-.24-.193.742.742,0,0,1-.089-.25l11.725-13.71c-.186.068-.626.254-1.316.558s-1.517.662-2.472,1.07-1.967.841-3.033,1.295-2.053.873-2.958,1.255-1.66.708-2.275.973-.937.4-.973.422c-.547.265-.637,1.052-.265,2.354.068.186-.029.343-.293.472a2.745,2.745,0,0,1-.447.154c-.2-.494-.393-.977-.587-1.449s-.383-.883-.551-1.238c-.136-.283-.333-.655-.594-1.12s-.508-.9-.748-1.306a2.384,2.384,0,0,1,.4-.258c.247-.122.429-.1.551.057a4.121,4.121,0,0,0,.944.966,1.035,1.035,0,0,0,.991.122c.161-.079.615-.275,1.363-.6s1.638-.7,2.665-1.148,2.117-.916,3.273-1.409,2.225-.955,3.208-1.377,1.8-.773,2.436-1.052l.987-.429a.745.745,0,0,0,.461-.633,4.645,4.645,0,0,0-.25-1.431q-.1-.279.322-.483a2.625,2.625,0,0,1,.447-.154c.093.24.2.508.326.808s.254.6.386.894l.379.848c.118.268.218.483.293.64a6.3,6.3,0,0,1,.322.762,3,3,0,0,1,.114.469.471.471,0,0,1-.05.3,2.645,2.645,0,0,1-.154.222L915.8,336.025Z" transform="translate(-599.672 -231.581)"/>
    <path id="Caminho_23" data-name="Caminho 23" class="cls-3" d="M945.4,438.972a6.3,6.3,0,0,1-.461,2.507q-.488,1.213-1.019,2.307t-.93,2.042a2.87,2.87,0,0,0-.215,1.756,2.221,2.221,0,0,0,.3.715,1.851,1.851,0,0,1,.275.6.129.129,0,0,1-.111.175,1.187,1.187,0,0,1-.715-.286,3.55,3.55,0,0,1-.637-.669,4.541,4.541,0,0,1-.476-.812,4.335,4.335,0,0,1-.258-.712,5.263,5.263,0,0,1-.086-1.989,9.478,9.478,0,0,1,.515-1.946,18.345,18.345,0,0,1,.855-1.906c.329-.63.64-1.23.941-1.806s.558-1.127.776-1.66a4.4,4.4,0,0,0,.354-1.474,9.646,9.646,0,0,1,.193-3.58,8.58,8.58,0,0,1,1.431-3.019,9.132,9.132,0,0,1,2.547-2.314,11.568,11.568,0,0,1,3.552-1.427,9.945,9.945,0,0,1,3.892-.147,10.24,10.24,0,0,1,3.52,1.238,9.675,9.675,0,0,1,2.758,2.382,8.2,8.2,0,0,1,1.574,3.259,11.354,11.354,0,0,1,.222,4.539,8.876,8.876,0,0,1-1.406,3.573,9,9,0,0,1-2.658,2.536,11.474,11.474,0,0,1-3.53,1.452,10.812,10.812,0,0,1-3.581.258,9.174,9.174,0,0,1-3.151-.883,8.892,8.892,0,0,1-2.557-1.914,9.333,9.333,0,0,1-1.8-2.829Zm.844-1.706a5.983,5.983,0,0,0,1.087,2.346,5.812,5.812,0,0,0,1.878,1.588,6.736,6.736,0,0,0,2.468.74,8.5,8.5,0,0,0,2.854-.193,16.561,16.561,0,0,0,3.727-1.32,9.744,9.744,0,0,0,2.765-2.017,6.554,6.554,0,0,0,1.538-2.683,6.481,6.481,0,0,0,.025-3.284,6.011,6.011,0,0,0-.966-2.146,5.756,5.756,0,0,0-1.731-1.592,6.444,6.444,0,0,0-2.382-.823,7.878,7.878,0,0,0-2.951.172,16.6,16.6,0,0,0-3.834,1.374,10.574,10.574,0,0,0-2.844,2.064,6.606,6.606,0,0,0-1.577,2.647A5.989,5.989,0,0,0,946.244,437.266Z" transform="translate(-622.829 -298.411)"/>
    <path id="Caminho_24" data-name="Caminho 24" class="cls-3" d="M970.16,509.2a11.337,11.337,0,0,1-3.065-.165,5.609,5.609,0,0,1-4.164-3.362,10.656,10.656,0,0,1-.8-3.631,11,11,0,0,1,.34-4.124,5.844,5.844,0,0,1,1.488-2.511,5.449,5.449,0,0,1,2.282-1.284,13.147,13.147,0,0,1,2.7-.472l9.979-.708a.945.945,0,0,0,.823-.472,4.134,4.134,0,0,0,.3-1.585c.007-.2.165-.3.479-.329a2.677,2.677,0,0,1,.476.025c0,.59.011,1.195.025,1.813s.039,1.213.082,1.778c.036.508.093,1.105.172,1.788s.157,1.316.24,1.9a2.7,2.7,0,0,1-.465.093c-.315.021-.486-.064-.519-.258a4.98,4.98,0,0,0-.526-1.57.9.9,0,0,0-.887-.422l-9.336.665a7.725,7.725,0,0,0-4.593,1.552q-1.545,1.336-1.338,4.239a9.32,9.32,0,0,0,.565,2.761,4.171,4.171,0,0,0,3.319,2.715,11.483,11.483,0,0,0,2.944.114l9.246-.658a.917.917,0,0,0,.819-.5,4.431,4.431,0,0,0,.3-1.613c0-.218.165-.336.476-.358a2.627,2.627,0,0,1,.472.025c0,.569.007,1.127.014,1.667s.029,1.005.057,1.4c.032.469.082.944.143,1.42s.132.948.2,1.416a2.389,2.389,0,0,1-.465.093.628.628,0,0,1-.315-.068.334.334,0,0,1-.208-.222,3.662,3.662,0,0,0-.5-1.484.964.964,0,0,0-.894-.365Z" transform="translate(-637.105 -339.675)"/>
    <path id="Caminho_25" data-name="Caminho 25" class="cls-3" d="M979.945,568.733l-7.511-.558-.34,4.578a.866.866,0,0,0,.511.88,6.215,6.215,0,0,0,1.363.5.478.478,0,0,1,.34.558,1.063,1.063,0,0,1-.047.232,2.312,2.312,0,0,1-.075.233c-.426-.072-.916-.143-1.459-.211s-1.023-.122-1.434-.15c-.333-.025-.74-.043-1.22-.061s-1.026-.018-1.638,0a1.737,1.737,0,0,1-.025-.444c.021-.315.165-.49.422-.529a6.413,6.413,0,0,0,1.424-.293.854.854,0,0,0,.633-.794l.34-4.578-6.925-.512c-.411-.029-.7.215-.88.733a11.711,11.711,0,0,0-.4,2.6l-.122,1.613a4.127,4.127,0,0,0,.14,1.5,3.77,3.77,0,0,0,.59,1.166,4.921,4.921,0,0,0,.948.941,12.8,12.8,0,0,0,1.238.83c.132.068.19.222.172.458a.622.622,0,0,1-.111.3c-.068.1-.132.2-.2.293a6.914,6.914,0,0,0-1.3-.554c-.508-.164-.994-.325-1.456-.476a10.714,10.714,0,0,1-1.177-.458c-.322-.154-.476-.325-.465-.522.014-.157.039-.379.079-.672s.079-.612.115-.951.075-.687.122-1.037.079-.655.1-.909l.476-6.424c.043-.569.072-1.177.089-1.824s.029-1.266.032-1.856a2.665,2.665,0,0,1,.476-.025c.275.021.422.129.447.329a6.836,6.836,0,0,0,.322,1.631.829.829,0,0,0,.787.544l14.937,1.105a.828.828,0,0,0,.837-.368,7.2,7.2,0,0,0,.58-1.624c.054-.193.225-.279.522-.258a1.9,1.9,0,0,1,.247.032,1.4,1.4,0,0,1,.215.061q-.182,1.255-.272,2.1c-.061.565-.111,1.073-.143,1.524l-.426,5.78q-.1,1.32-.082,2.3c.011.647.011,1.08-.007,1.3-.018.254-.193.415-.522.476a8.708,8.708,0,0,1-1.177.136c-.454.025-.937.057-1.452.1a3.509,3.509,0,0,0-1.323.343.824.824,0,0,1-.136-.54.486.486,0,0,1,.3-.479c.526-.2.976-.39,1.356-.579a3.489,3.489,0,0,0,.951-.683,2.856,2.856,0,0,0,.6-.987,5.517,5.517,0,0,0,.286-1.47Z" transform="translate(-636.564 -385.085)"/>
    <path id="Caminho_26" data-name="Caminho 26" class="cls-3" d="M951.282,643.831l1.674-6.345-4.1-3.03a1.666,1.666,0,0,0-.529-.293c-.4-.107-.837.4-1.313,1.509a.354.354,0,0,1-.229.229.642.642,0,0,1-.318-.007,2.521,2.521,0,0,1-.44-.175c.175-.5.351-1.034.529-1.6s.34-1.116.486-1.667c.1-.379.193-.773.279-1.173s.161-.83.218-1.281a1.9,1.9,0,0,1,.472.064.8.8,0,0,1,.322.161.354.354,0,0,1,.089.343,5.2,5.2,0,0,0,.007,1.417,1.326,1.326,0,0,0,.5.815l14.69,11.217c.286.218.4.44.34.669a1.426,1.426,0,0,1-.147.326L944.979,647.4a1.3,1.3,0,0,0-.83.6,5.766,5.766,0,0,0-.622,1.084.727.727,0,0,1-.225.229.541.541,0,0,1-.383.007,2.832,2.832,0,0,1-.44-.175c.2-.6.39-1.187.572-1.767s.343-1.127.479-1.638q.209-.794.44-1.831t.386-1.874a2.27,2.27,0,0,1,.472.064.528.528,0,0,1,.329.193.282.282,0,0,1,.05.211,6.743,6.743,0,0,0,.011,1.281.622.622,0,0,0,.436.6,1.214,1.214,0,0,0,.458,0Zm1.288-.147,7.669-.8L954,638.28Z" transform="translate(-623.821 -427.282)"/>
    <path id="Caminho_27" data-name="Caminho 27" class="cls-3" d="M929.981,697.561a.722.722,0,0,0-.823.136,2.876,2.876,0,0,0-.651,1.034l-1.23,2.962a4.35,4.35,0,0,0-.358,1.445,2.981,2.981,0,0,0,.179,1.22,4.172,4.172,0,0,0,.637,1.109,8.493,8.493,0,0,0,1.034,1.08.347.347,0,0,1,.082.415.756.756,0,0,1-.186.258c-.086.079-.179.165-.279.25-.49-.351-1.016-.715-1.574-1.084s-1.2-.758-1.924-1.163c-.193-.1-.3-.207-.315-.322a.676.676,0,0,1,.054-.358q.193-.461.547-1.127t.569-1.18l2.819-6.8c.172-.418.376-.948.615-1.6s.458-1.266.662-1.86a2.605,2.605,0,0,1,.458.125q.381.156.322.451a5.737,5.737,0,0,0-.211,1.7.835.835,0,0,0,.551.708l13.864,5.748a.907.907,0,0,0,.934-.061,4.9,4.9,0,0,0,1.005-1.306.324.324,0,0,1,.232-.143.627.627,0,0,1,.315.05,2.917,2.917,0,0,1,.44.247c-.29.6-.576,1.195-.851,1.781s-.5,1.087-.672,1.506q-.381.923-.773,1.974t-.672,1.889a2.509,2.509,0,0,1-.458-.125c-.308-.129-.429-.293-.365-.5a6.523,6.523,0,0,0,.322-1.889,1.025,1.025,0,0,0-.7-.948Z" transform="translate(-611.68 -466.621)"/>
    <path id="Caminho_28" data-name="Caminho 28" class="cls-3" d="M913.779,742.767a.83.83,0,0,0-.9-.018,6.419,6.419,0,0,0-1.123,1.134c-.125.154-.311.168-.554.039a2.531,2.531,0,0,1-.386-.275c.322-.519.637-1.037.948-1.563s.6-1.027.855-1.509.511-.991.787-1.567.529-1.123.762-1.645a2.732,2.732,0,0,1,.444.168q.365.193.279.483a5.438,5.438,0,0,0-.333,1.556.873.873,0,0,0,.533.751l13.217,7.05a.906.906,0,0,0,.934.032,4.708,4.708,0,0,0,1.1-1.148.281.281,0,0,1,.268-.125.894.894,0,0,1,.315.1,2.738,2.738,0,0,1,.386.272q-.467.751-.955,1.574c-.325.547-.612,1.048-.848,1.5-.232.433-.483.937-.758,1.513s-.537,1.141-.787,1.7a2.6,2.6,0,0,1-.444-.168c-.261-.139-.361-.3-.3-.494a4.663,4.663,0,0,0,.343-1.552.9.9,0,0,0-.547-.758Z" transform="translate(-602.357 -495.15)"/>
    <path id="Caminho_29" data-name="Caminho 29" class="cls-3" d="M884.293,788.964c.039.079.079.161.114.243a.433.433,0,0,1,0,.308,3.254,3.254,0,0,1-.19.443,6.015,6.015,0,0,1-.443.694c-.093.129-.211.3-.347.512s-.293.44-.458.687-.326.5-.486.755-.311.5-.44.715a2.353,2.353,0,0,1-.419-.229c-.258-.182-.333-.361-.236-.529a3.523,3.523,0,0,0,.5-1.377.768.768,0,0,0-.333-.672c-.014-.011-.236-.15-.658-.418s-1.127-.719-2.107-1.352-2.289-1.481-3.917-2.543-3.648-2.386-6.056-3.974a1.04,1.04,0,0,0-.894-.172,3.7,3.7,0,0,0-1.2.912.317.317,0,0,1-.261.086.614.614,0,0,1-.293-.122,2.568,2.568,0,0,1-.347-.322c.433-.536.823-1.019,1.173-1.456s.662-.848.937-1.231c.115-.161.254-.361.419-.6s.336-.5.519-.769.354-.537.522-.8.315-.5.433-.7a2.354,2.354,0,0,1,.419.229c.254.182.325.354.211.515a6.464,6.464,0,0,0-.554,1.577.838.838,0,0,0,.393.812q.07.054.912.6t2.053,1.331q1.213.783,2.618,1.7t2.654,1.728c.833.536,1.552,1,2.157,1.384s.969.626,1.1.715l-8.878-14.318a2.091,2.091,0,0,1-.193-.411.326.326,0,0,1,.057-.3.66.66,0,0,1,.179-.2l17.638,3.8c-.147-.132-.522-.429-1.116-.894s-1.3-1.019-2.117-1.667-1.678-1.331-2.583-2.057-1.742-1.391-2.511-2-1.416-1.127-1.939-1.538-.8-.63-.837-.655c-.494-.354-1.227-.061-2.2.887-.129.147-.315.136-.554-.036a2.579,2.579,0,0,1-.347-.322q.51-.612.994-1.205t.826-1.073c.182-.254.419-.608.7-1.052s.551-.873.794-1.277a2.43,2.43,0,0,1,.415.225c.225.161.293.333.211.515a4.116,4.116,0,0,0-.4,1.288,1.041,1.041,0,0,0,.365.93c.143.1.533.408,1.173.916s1.4,1.105,2.275,1.8,1.81,1.427,2.8,2.211,1.9,1.5,2.74,2.168,1.534,1.213,2.082,1.642l.844.662a.747.747,0,0,0,.776.1,4.65,4.65,0,0,0,1.137-.9q.193-.225.579.054a2.583,2.583,0,0,1,.347.322c-.165.2-.347.419-.554.669s-.4.508-.6.762-.386.5-.565.737-.322.422-.422.565a6.07,6.07,0,0,1-.519.644,2.842,2.842,0,0,1-.358.322.459.459,0,0,1-.29.1c-.093-.007-.182-.018-.268-.029l-15.6-3.455Z" transform="translate(-571.866 -509.611)"/>
    <path id="Caminho_30" data-name="Caminho 30" class="cls-3" d="M849.484,843.71l-5.333-5.322-3.241,3.248a.855.855,0,0,0-.186,1,6.213,6.213,0,0,0,.712,1.27.479.479,0,0,1-.1.644,1.4,1.4,0,0,1-.186.147,1.68,1.68,0,0,1-.208.125c-.279-.333-.6-.7-.969-1.112s-.7-.758-.991-1.048c-.236-.236-.529-.515-.883-.841s-.769-.683-1.238-1.07a1.764,1.764,0,0,1,.268-.354.5.5,0,0,1,.665-.125,6.249,6.249,0,0,0,1.27.7.859.859,0,0,0,1-.19l3.244-3.248-4.918-4.9c-.29-.29-.672-.3-1.145-.018a11.62,11.62,0,0,0-2,1.71l-1.141,1.145a3.99,3.99,0,0,0-.873,1.23,3.843,3.843,0,0,0-.311,1.27,4.735,4.735,0,0,0,.107,1.331,12.825,12.825,0,0,0,.4,1.434c.057.14,0,.29-.168.458a.679.679,0,0,1-.279.157c-.118.036-.232.064-.343.093a6.881,6.881,0,0,0-.626-1.266c-.279-.458-.54-.894-.79-1.309a10.676,10.676,0,0,1-.594-1.112c-.143-.325-.15-.558-.011-.7.111-.111.279-.265.5-.458s.458-.411.708-.647.5-.472.769-.708.486-.443.665-.626l4.55-4.56c.4-.4.823-.844,1.259-1.323s.848-.941,1.234-1.384a2.488,2.488,0,0,1,.376.29c.193.193.236.376.125.54a6.8,6.8,0,0,0-.819,1.445.844.844,0,0,0,.24.926l10.6,10.58a.822.822,0,0,0,.873.268,7.018,7.018,0,0,0,1.5-.855c.165-.111.351-.061.562.146a2.361,2.361,0,0,1,.168.186c.039.054.082.118.125.186-.637.558-1.166,1.027-1.581,1.417s-.783.744-1.1,1.062l-4.1,4.1q-.934.939-1.556,1.688c-.419.5-.7.826-.851.98a.539.539,0,0,1-.7.022,8.251,8.251,0,0,1-.98-.665c-.361-.275-.751-.569-1.166-.873a3.432,3.432,0,0,0-1.23-.6.889.889,0,0,1,.247-.5.489.489,0,0,1,.54-.168,14.316,14.316,0,0,0,1.406.447,3.49,3.49,0,0,0,1.166.1,2.875,2.875,0,0,0,1.1-.354,5.419,5.419,0,0,0,1.177-.926Z" transform="translate(-547.934 -545.905)"/>
    <path id="Caminho_31" data-name="Caminho 31" class="cls-3" d="M786.117,877.635l7.393,9.829a.968.968,0,0,0,.926.447,4.831,4.831,0,0,0,1.517-.626c.186-.114.372-.047.562.2a2.442,2.442,0,0,1,.236.411c-.415.265-.833.537-1.259.819s-.816.562-1.18.83c-.343.261-.7.544-1.055.848s-.7.612-1.044.912a2.314,2.314,0,0,1-.329-.34c-.19-.25-.211-.443-.064-.576a3.36,3.36,0,0,0,.844-1.152.974.974,0,0,0-.218-.9l-10.416-13.853a.634.634,0,0,1,.136-.161,2.25,2.25,0,0,1,.179-.154.736.736,0,0,1,.368-.147,1.567,1.567,0,0,1,.587.093l19.011,5.4-8.331-11.078a.869.869,0,0,0-.826-.411,5.543,5.543,0,0,0-1.534.6c-.179.086-.351.018-.519-.2a2.435,2.435,0,0,1-.236-.411c.419-.265.833-.533,1.248-.812s.8-.544,1.145-.8c.315-.236.672-.526,1.08-.866s.769-.658,1.091-.948a2.51,2.51,0,0,1,.329.34c.165.218.175.411.025.572a4.637,4.637,0,0,0-.876,1.209.906.906,0,0,0,.2.88l9.089,12.09a.837.837,0,0,0,.7.372,3.4,3.4,0,0,0,1.356-.522c.2-.1.383-.029.562.208a1.2,1.2,0,0,1,.136.229.849.849,0,0,1,.1.182c-.336.2-.655.4-.948.6-.261.172-.536.361-.826.565s-.54.39-.758.554a6.511,6.511,0,0,1-.941.633.759.759,0,0,1-.54.039Z" transform="translate(-523.191 -571.145)"/>
    <path id="Caminho_32" data-name="Caminho 32" class="cls-3" d="M749.767,926.894l-7.5-13.807a.978.978,0,0,0-.948-.572,6.044,6.044,0,0,0-1.856.526c-.19.1-.358.014-.511-.261a2.554,2.554,0,0,1-.186-.469q.858-.4,1.8-.859t1.867-.966q.907-.494,1.828-1.044c.615-.368,1.191-.719,1.721-1.052a2.459,2.459,0,0,1,.29.411c.129.243.118.426-.036.554a7.486,7.486,0,0,0-1.47,1.3.95.95,0,0,0-.068,1.109l7.5,13.807,2.661-1.449a5.23,5.23,0,0,0,1.22-.866,2.962,2.962,0,0,0,.665-.966,3.181,3.181,0,0,0,.236-1.166c.011-.429,0-.919-.025-1.459a.355.355,0,0,1,.072-.272.6.6,0,0,1,.19-.172.9.9,0,0,1,.576-.111c.165.715.336,1.334.511,1.864s.315.973.419,1.327a4.3,4.3,0,0,1,.182.855.436.436,0,0,1-.236.461c-.118.064-.3.15-.529.254s-.479.215-.74.336l-.791.361c-.268.122-.515.247-.737.368l-8.635,4.693c-.207.111-.436.247-.683.4s-.5.315-.748.472-.476.3-.683.436-.376.24-.515.315a.444.444,0,0,1-.522-.068,4.936,4.936,0,0,1-.633-.644q-.37-.435-.88-1.095a12.088,12.088,0,0,0-1.273-1.384c.068-.082.132-.161.19-.236a.767.767,0,0,1,.243-.2.662.662,0,0,1,.261-.075.361.361,0,0,1,.279.082,13.348,13.348,0,0,0,1.188.83,3.345,3.345,0,0,0,1.095.444,2.892,2.892,0,0,0,1.159-.025,5.406,5.406,0,0,0,1.388-.554Z" transform="translate(-496.542 -600.832)"/>
    <path id="Caminho_33" data-name="Caminho 33" class="cls-3" d="M684.022,936.215l6.116-2.379.036-5.1a1.65,1.65,0,0,0-.075-.6c-.15-.383-.812-.44-1.992-.172a.349.349,0,0,1-.318-.05.614.614,0,0,1-.182-.261,2.384,2.384,0,0,1-.114-.461c.508-.157,1.041-.326,1.6-.511s1.1-.383,1.635-.587c.368-.143.737-.3,1.116-.465s.765-.361,1.162-.579a1.97,1.97,0,0,1,.225.419.82.82,0,0,1,.061.354.37.37,0,0,1-.225.276,5.009,5.009,0,0,0-1.141.84,1.368,1.368,0,0,0-.368.884l-.422,18.478c-.007.361-.122.583-.34.669a1.5,1.5,0,0,1-.351.072l-13.016-13.818a1.3,1.3,0,0,0-.977-.315,5.934,5.934,0,0,0-1.241.136.679.679,0,0,1-.318-.05.51.51,0,0,1-.229-.307,2.393,2.393,0,0,1-.114-.461c.6-.19,1.188-.383,1.763-.576s1.112-.386,1.606-.579c.515-.2,1.091-.44,1.742-.723s1.23-.547,1.746-.791a2.517,2.517,0,0,1,.225.419.507.507,0,0,1,.036.379.287.287,0,0,1-.14.164,6.754,6.754,0,0,0-1.03.762.623.623,0,0,0-.233.7,1.1,1.1,0,0,0,.272.368Zm.876.955,5.161,5.727.046-7.755Z" transform="translate(-456.255 -612.124)"/>
  </g>
</svg>
